<?xml version="1.0" standalone="no"?>
<!DOCTYPE svg PUBLIC "-//W3C//DTD SVG 20010904//EN"
 "http://www.w3.org/TR/2001/REC-SVG-20010904/DTD/svg10.dtd">
<svg version="1.0" xmlns="http://www.w3.org/2000/svg"
 width="800.000000pt" height="800.000000pt" viewBox="0 0 1591.000000 1579.000000"
 preserveAspectRatio="xMidYMid meet">

<g transform="translate(0.000000,1579.000000) scale(0.100000,-0.100000)"
fill="#000000" stroke="none">
<path d="M7304 14089 c-379 -65 -692 -347 -801 -722 l-27 -92 -4 -672 c-3
-748 -2 -764 67 -938 128 -322 425 -561 766 -617 84 -13 1176 -21 1305 -9 138
13 236 39 349 92 241 113 425 316 516 572 55 155 57 178 53 912 l-3 670 -28
90 c-56 179 -141 317 -273 446 -122 118 -256 195 -431 247 l-88 26 -675 2
c-371 1 -698 -2 -726 -7z m1398 -175 c324 -65 589 -334 650 -660 9 -52 13
-228 13 -704 0 -629 0 -636 -23 -715 -73 -260 -228 -445 -464 -554 -161 -75
-150 -74 -833 -79 -742 -5 -771 -2 -952 92 -172 90 -288 209 -372 381 -83 171
-83 167 -79 930 l3 660 32 93 c101 299 358 518 660 564 129 20 1261 13 1365
-8z"/>
<path d="M7820 13421 c-323 -72 -569 -304 -660 -622 -27 -92 -37 -267 -21
-367 50 -320 275 -584 592 -694 92 -32 97 -33 269 -33 170 1 177 1 270 33 293
99 514 342 584 642 20 90 16 321 -7 410 -28 102 -109 256 -179 339 -111 131
-271 234 -438 281 -109 31 -297 36 -410 11z m385 -179 c209 -67 369 -214 448
-412 38 -96 49 -153 49 -260 -1 -212 -71 -372 -228 -519 -189 -177 -458 -233
-705 -147 -96 33 -170 79 -250 154 -83 78 -140 163 -180 273 -41 110 -51 274
-25 393 60 268 289 487 566 540 59 11 266 -3 325 -22z"/>
<path d="M7876 13069 c-113 -27 -234 -114 -305 -220 -97 -145 -110 -355 -31
-509 160 -315 571 -383 822 -136 64 62 98 118 128 205 25 76 30 200 11 281
-43 177 -205 339 -381 379 -54 13 -190 12 -244 0z m238 -174 c236 -84 309
-388 135 -566 -72 -74 -143 -104 -249 -104 -70 0 -95 5 -140 26 -144 67 -230
229 -200 377 24 117 109 221 213 261 62 24 183 27 241 6z"/>
<path d="M7710 12596 c-32 -40 23 -192 92 -251 74 -63 197 -94 232 -59 35 34
9 68 -57 78 -51 8 -130 54 -148 88 -7 13 -20 52 -29 88 -15 61 -18 65 -46 68
-19 2 -36 -3 -44 -12z"/>
<path d="M6563 10418 c-54 -59 -35 -107 64 -161 670 -373 1495 -455 2234 -221
253 80 567 231 595 287 17 32 11 62 -19 95 -32 35 -67 27 -199 -42 -272 -143
-569 -237 -888 -282 -189 -27 -538 -24 -730 5 -315 48 -579 133 -858 276 -69
36 -137 65 -152 65 -15 0 -36 -10 -47 -22z"/>
<path d="M5493 8765 c-17 -7 -35 -26 -42 -42 -19 -46 -5 -81 48 -114 79 -50
449 -232 586 -288 266 -108 777 -265 795 -244 8 9 34 153 29 157 -2 1 -62 17
-134 36 -371 94 -820 274 -1150 462 -77 44 -95 48 -132 33z"/>
<path d="M10458 8772 c-9 -2 -52 -23 -95 -48 -371 -212 -890 -407 -1328 -500
-71 -15 -132 -29 -134 -30 -2 -2 2 -40 9 -84 l13 -81 41 7 c22 3 113 24 201
44 390 93 753 226 1115 411 232 118 267 141 275 178 12 57 -42 115 -97 103z"/>
<path d="M7808 8699 c-370 -39 -668 -374 -668 -752 0 -70 21 -198 40 -242 5
-11 12 -31 15 -45 11 -40 64 -127 117 -193 229 -286 638 -363 965 -182 101 56
238 198 290 300 58 112 84 204 90 315 17 290 -132 564 -384 706 -65 37 -155
72 -201 78 -103 15 -178 25 -182 24 -3 0 -40 -4 -82 -9z m245 -184 c197 -57
351 -203 409 -388 33 -104 32 -263 -1 -365 -58 -177 -197 -317 -377 -378 -65
-22 -97 -27 -179 -27 -209 -1 -386 93 -496 260 -169 260 -121 593 115 784 155
126 347 167 529 114z"/>
<path d="M8070 7140 c-245 -21 -463 -43 -485 -49 -22 -5 -70 -23 -106 -39 -79
-35 -21 44 -543 -745 -402 -607 -350 -545 -541 -647 -563 -298 -642 -343 -677
-381 -49 -53 -67 -127 -50 -206 10 -51 79 -184 144 -280 52 -77 168 -133 242
-117 55 12 959 470 988 501 14 15 108 152 208 303 100 151 192 289 203 307 12
18 25 29 28 25 3 -4 16 -86 28 -182 12 -96 26 -197 31 -225 5 -27 14 -88 20
-135 5 -47 20 -150 31 -230 11 -80 25 -179 29 -220 21 -180 39 -280 63 -339
14 -36 23 -70 19 -76 -4 -6 -115 -154 -247 -328 -132 -175 -252 -334 -268
-354 -15 -20 -31 -52 -36 -72 -5 -20 -59 -245 -120 -501 -210 -881 -281 -1175
-292 -1218 -35 -128 57 -256 210 -296 51 -13 117 -17 291 -19 219 -2 226 -1
270 22 132 69 141 86 195 373 51 268 62 320 81 403 7 33 43 213 79 400 91 467
101 516 118 532 12 12 15 6 20 -47 6 -68 -5 -49 237 -405 56 -82 236 -346 398
-585 517 -759 519 -762 563 -792 70 -47 195 -51 280 -8 80 41 375 248 401 282
81 106 95 233 35 315 -12 17 -144 172 -293 344 -620 720 -700 813 -723 842
l-25 30 43 384 c31 279 48 396 61 427 31 69 62 268 64 406 0 80 -20 367 -57
798 -32 371 -57 676 -54 678 4 4 536 -243 548 -255 4 -3 39 -206 78 -451 77
-479 82 -498 150 -548 72 -53 139 -61 332 -42 131 13 194 42 249 111 27 35 40
62 44 96 5 34 -13 185 -63 528 -76 528 -90 586 -170 703 -51 76 -116 132 -235
204 -135 83 -1040 683 -1106 734 -69 54 -110 71 -185 78 -33 2 -260 -13 -505
-34z m907 -396 c732 -485 788 -521 828 -542 96 -49 176 -146 214 -260 25 -72
155 -964 147 -998 -9 -35 -73 -54 -209 -61 -110 -5 -124 -4 -143 13 -19 17
-31 74 -97 488 -68 428 -77 470 -98 491 -13 12 -130 72 -259 133 -849 401
-844 399 -863 430 -28 47 -67 216 -73 323 -6 89 -5 101 16 135 12 21 31 45 43
54 33 24 81 49 94 50 7 0 187 -115 400 -256z m-687 244 c0 -2 -9 -27 -20 -56
-24 -63 -26 -140 -5 -277 31 -203 80 -328 147 -377 18 -14 98 -55 178 -92 80
-38 149 -72 153 -76 7 -6 126 -1341 127 -1422 0 -27 -51 -80 -99 -101 -30 -13
-156 -35 -395 -68 -504 -70 -461 -67 -496 -34 -16 16 -37 47 -45 69 -15 39
-45 227 -65 401 -5 44 -16 125 -25 180 -9 55 -22 154 -30 220 -8 66 -31 237
-50 380 -20 143 -52 375 -71 515 -19 140 -44 317 -54 393 -11 76 -20 154 -20
172 0 41 46 99 88 110 15 4 169 20 342 35 173 15 321 28 328 29 6 0 12 0 12
-1z m-885 -604 c20 -142 37 -270 38 -284 1 -17 -76 -141 -255 -411 -141 -212
-262 -390 -270 -396 -7 -5 -212 -110 -454 -232 l-442 -223 -30 16 c-28 14 -95
112 -146 213 -21 42 -20 86 2 105 9 8 96 57 192 108 96 51 234 125 305 163 72
38 173 92 225 120 52 27 101 55 109 61 13 10 646 960 672 1007 6 12 12 19 15
17 2 -3 20 -121 39 -264z m1461 -1996 c-4 -29 -14 -83 -22 -119 -17 -77 16
-46 -339 -314 -709 -535 -684 -515 -694 -554 -5 -20 -12 -49 -15 -66 -2 -16
-27 -142 -55 -280 -43 -216 -80 -406 -137 -700 -21 -110 -55 -274 -70 -340 -8
-33 -17 -83 -20 -110 -14 -109 -48 -126 -247 -125 -254 3 -344 22 -362 80 -3
10 34 187 84 392 181 752 321 1338 321 1348 0 5 40 60 88 122 48 62 168 220
266 350 l177 236 31 -10 c34 -12 97 -8 288 21 74 11 241 34 370 51 142 20 251
39 275 50 65 29 69 27 61 -32z m-127 -775 c-21 -187 -33 -336 -29 -348 4 -11
157 -193 340 -405 183 -212 355 -412 384 -446 28 -33 120 -141 204 -238 144
-167 153 -180 146 -210 -3 -17 -15 -43 -25 -57 -18 -25 -295 -221 -348 -246
-34 -16 -103 -16 -123 0 -8 6 -68 91 -133 187 -65 96 -180 265 -255 375 -130
191 -326 479 -603 887 l-127 186 0 99 1 98 77 56 c42 31 176 131 297 223 121
91 222 166 225 166 4 0 -10 -147 -31 -327z"/>
<path d="M4435 6955 c-34 -33 -33 -79 3 -114 36 -36 311 -184 541 -291 299
-140 619 -264 931 -360 121 -37 510 -140 531 -140 5 0 29 32 55 71 50 78 50
82 -15 94 -79 14 -356 87 -528 139 -428 130 -894 328 -1297 549 -82 45 -152
77 -168 77 -17 0 -39 -10 -53 -25z"/>
<path d="M11360 6914 c-280 -160 -751 -372 -1055 -476 -33 -11 -62 -22 -64
-24 -3 -3 7 -17 21 -32 14 -15 38 -46 53 -69 l27 -42 81 30 c269 99 478 190
738 319 237 118 396 207 414 233 21 30 19 70 -6 101 -34 43 -76 35 -209 -40z"/>
<path d="M3364 5076 c-18 -8 -36 -27 -44 -46 -25 -59 -2 -84 161 -175 242
-133 613 -316 844 -415 768 -330 1571 -554 2407 -670 182 -25 175 -25 182 3 3
12 21 47 39 78 l34 57 -96 12 c-317 38 -774 122 -1086 199 -484 120 -1045 311
-1473 503 -74 33 -148 65 -165 71 -50 19 -437 218 -595 306 -79 44 -151 82
-160 85 -10 3 -31 -1 -48 -8z"/>
<path d="M12585 5081 c-11 -3 -90 -45 -175 -92 -775 -433 -1672 -765 -2560
-948 -186 -38 -555 -101 -596 -101 -36 0 -45 -16 -53 -96 -5 -43 -8 -80 -7
-82 10 -10 500 74 776 133 894 191 1822 544 2585 981 101 59 121 74 128 100
17 60 -41 122 -98 105z"/>
</g>
</svg>
