<?xml version="1.0" standalone="no"?>
<!DOCTYPE svg PUBLIC "-//W3C//DTD SVG 20010904//EN"
 "http://www.w3.org/TR/2001/REC-SVG-20010904/DTD/svg10.dtd">
<svg version="1.0" xmlns="http://www.w3.org/2000/svg"
 width="800.000000pt" height="800.000000pt" viewBox="0 0 800.000000 800.000000"
 preserveAspectRatio="xMidYMid meet">

<g transform="translate(0.000000,800.000000) scale(0.100000,-0.100000)"
fill="#000000" stroke="none">
<path d="M3555 6423 c-278 -34 -510 -234 -591 -508 -26 -89 -33 -887 -9 -1025
46 -270 238 -481 505 -557 59 -16 109 -18 540 -18 421 0 482 2 536 17 252 72
431 250 501 498 16 59 18 110 18 540 0 429 -2 481 -18 539 -78 274 -299 471
-575 511 -62 9 -839 12 -907 3z m959 -128 c178 -46 325 -180 397 -360 24 -60
24 -60 27 -538 2 -404 1 -487 -12 -538 -49 -191 -186 -337 -381 -406 l-80 -28
-455 0 c-510 0 -517 1 -654 73 -131 68 -242 210 -281 358 -22 86 -22 942 0
1028 50 192 207 352 400 407 53 15 115 18 520 18 383 1 471 -2 519 -14z"/>
<path d="M3885 5960 c-228 -49 -408 -222 -465 -446 -53 -207 4 -410 158 -564
237 -237 592 -242 835 -11 132 126 196 286 184 464 -10 154 -59 266 -164 377
-113 120 -244 180 -408 186 -55 2 -118 -1 -140 -6z m224 -115 c247 -59 412
-300 373 -547 -32 -209 -197 -374 -409 -410 -316 -53 -608 239 -555 555 47
282 318 466 591 402z"/>
<path d="M3870 5698 c-78 -30 -169 -123 -199 -203 -31 -83 -27 -196 10 -276
33 -70 98 -135 169 -168 47 -22 69 -26 150 -26 82 0 103 4 151 26 72 34 134
96 168 168 22 48 26 69 26 151 0 82 -4 103 -26 150 -34 72 -93 131 -166 166
-79 39 -201 45 -283 12z m211 -102 c58 -21 107 -64 135 -122 54 -110 15 -244
-91 -309 -43 -27 -57 -30 -124 -30 -85 1 -122 15 -172 68 -39 41 -57 75 -65
125 -29 183 145 330 317 268z"/>
<path d="M3803 5385 c-10 -27 4 -95 28 -129 44 -65 156 -113 189 -80 21 21 1
48 -41 55 -19 3 -44 11 -56 17 -28 15 -63 73 -63 104 0 41 -44 66 -57 33z"/>
<path d="M3472 3998 c-13 -13 -16 -57 -4 -74 12 -19 121 -71 219 -104 129 -43
270 -57 415 -43 131 14 218 38 341 95 91 43 107 62 92 107 -12 39 -49 36 -144
-8 -254 -118 -528 -118 -778 -1 -90 42 -121 48 -141 28z"/>
<path d="M3086 3404 c-40 -40 -13 -75 102 -133 450 -225 966 -253 1442 -79 94
34 255 112 283 136 34 30 11 92 -34 92 -10 0 -74 -27 -141 -59 -483 -233
-1046 -226 -1517 19 -83 43 -111 48 -135 24z"/>
<path d="M2728 2778 c-22 -18 -28 -54 -12 -76 16 -23 238 -134 374 -187 187
-73 444 -133 664 -156 168 -17 496 -7 651 20 268 46 485 116 719 232 170 85
184 97 166 144 -18 47 -46 42 -221 -44 -330 -161 -623 -235 -984 -248 -403
-14 -782 67 -1154 248 -90 43 -169 79 -175 79 -7 0 -19 -6 -28 -12z"/>
<path d="M2337 2102 c-23 -26 -21 -57 5 -82 31 -28 317 -168 458 -223 680
-266 1459 -295 2169 -80 208 63 477 177 639 272 63 37 72 45 72 71 0 33 -23
60 -51 60 -10 0 -58 -22 -106 -48 -313 -173 -672 -293 -1054 -353 -169 -26
-585 -37 -764 -20 -437 42 -865 172 -1228 373 -96 53 -116 57 -140 30z"/>
</g>
</svg>
