<?xml version="1.0" standalone="no"?>
<!DOCTYPE svg PUBLIC "-//W3C//DTD SVG 20010904//EN"
 "http://www.w3.org/TR/2001/REC-SVG-20010904/DTD/svg10.dtd">
<svg version="1.0" xmlns="http://www.w3.org/2000/svg"
 width="200.000000pt" height="200.000000pt" viewBox="0 0 200.000000 200.000000"
 preserveAspectRatio="xMidYMid meet">

<g transform="translate(0.000000,200.000000) scale(0.100000,-0.100000)"
fill="#000000" stroke="none">
<path d="M583 1406 l-28 -24 2 -434 3 -433 25 -22 c26 -23 27 -23 398 -23
l372 0 30 24 30 24 0 432 0 432 -28 24 -28 24 -374 0 -374 0 -28 -24z m770 -7
c12 -7 25 -17 29 -23 10 -14 10 -838 0 -852 -20 -31 -54 -33 -400 -33 l-350
-1 -26 25 -26 24 0 411 0 411 25 24 24 25 351 0 c245 0 358 -3 373 -11z"/>
<path d="M270 1245 c-10 -12 -6 -20 19 -46 17 -17 31 -34 31 -38 0 -5 -22 -29
-49 -54 l-49 -46 49 -45 c27 -25 49 -51 48 -58 0 -7 -25 -32 -55 -56 -30 -24
-54 -47 -54 -51 0 -4 25 -25 55 -47 30 -21 54 -44 55 -50 0 -6 -13 -23 -30
-37 -32 -29 -34 -35 -21 -56 11 -17 23 -10 86 46 l47 43 -29 25 c-15 14 -40
33 -55 42 -44 27 -40 35 62 123 l24 21 -44 39 c-25 22 -48 39 -52 40 -21 1 -3
32 41 73 l48 45 -52 51 c-29 28 -54 51 -57 51 -3 0 -11 -7 -18 -15z"/>
<path d="M1626 1207 l-49 -51 53 -47 c59 -52 61 -44 -24 -116 l-38 -32 39 -34
c21 -19 49 -43 62 -54 l23 -19 -60 -51 -61 -50 32 -29 c84 -77 85 -78 102 -64
14 12 12 18 -22 52 l-38 39 39 32 c91 73 89 59 21 122 l-60 55 54 50 54 50
-54 49 -54 50 34 35 c29 30 32 38 21 51 -7 8 -15 15 -19 14 -3 -1 -28 -24 -55
-52z"/>
</g>
</svg>
