<?xml version="1.0" standalone="no"?>
<!DOCTYPE svg PUBLIC "-//W3C//DTD SVG 20010904//EN"
 "http://www.w3.org/TR/2001/REC-SVG-20010904/DTD/svg10.dtd">
<svg version="1.0" xmlns="http://www.w3.org/2000/svg"
 width="600.000000pt" height="600.000000pt" viewBox="0 0 600.000000 600.000000"
 preserveAspectRatio="xMidYMid meet">

<g transform="translate(0.000000,600.000000) scale(0.100000,-0.100000)"
fill="#000000" stroke="none">
<path d="M2665 5843 c-170 -8 -398 -26 -549 -44 -874 -101 -1406 -330 -1406
-605 0 -40 414 -3281 535 -4184 29 -214 50 -270 138 -367 215 -236 665 -408
1242 -475 140 -16 616 -16 750 0 571 69 995 228 1221 457 83 84 129 168 143
265 41 264 551 4252 551 4304 0 328 -757 586 -1895 646 -171 9 -574 11 -730 3z
m995 -167 c698 -64 1232 -208 1421 -385 85 -79 83 -138 -7 -220 -158 -145
-595 -279 -1139 -351 -457 -60 -1234 -66 -1728 -15 -607 64 -1106 206 -1280
365 -94 86 -95 146 -2 228 217 191 840 343 1605 392 212 13 926 4 1130 -14z
m-2662 -830 c596 -300 1950 -413 3062 -255 432 61 808 170 1001 289 27 16 49
28 49 27 0 -7 -363 -2823 -440 -3416 -59 -446 -86 -626 -100 -658 -93 -211
-538 -421 -1055 -497 -784 -116 -1675 55 -2006 386 -86 86 -92 107 -143 503
-25 193 -140 1084 -256 1980 -115 897 -213 1648 -216 1669 l-6 39 28 -20 c16
-11 53 -32 82 -47z"/>
<path d="M2592 3780 c-33 -17 -74 -46 -90 -64 -16 -19 -82 -126 -146 -238
-157 -275 -157 -287 9 -382 l80 -46 -40 0 c-22 0 -138 7 -259 15 -122 8 -228
10 -240 5 -32 -12 -48 -35 -49 -74 -1 -43 13 -60 80 -98 29 -16 55 -33 58 -37
2 -4 -35 -77 -82 -161 -84 -149 -87 -155 -91 -230 -3 -47 1 -93 8 -116 17 -52
305 -558 342 -600 17 -19 60 -48 96 -66 l67 -33 235 -3 c336 -5 351 3 360 179
l5 100 115 -231 c63 -128 123 -236 132 -241 31 -17 78 -10 103 16 22 21 25 33
25 98 l0 75 178 3 c176 4 178 4 242 36 36 18 77 45 92 60 31 33 324 540 344
597 17 47 18 150 3 197 -20 58 -241 439 -267 459 -50 40 -92 29 -241 -63 -22
-13 -31 -16 -26 -6 5 8 67 104 139 214 71 110 134 211 139 225 14 36 -9 80
-50 97 -30 12 -37 10 -99 -22 -37 -19 -70 -35 -74 -35 -4 0 -42 61 -85 136
-94 165 -119 194 -197 234 l-61 30 -347 0 -347 0 -61 -30z m178 -120 c20 -5
50 -24 66 -42 34 -36 74 -99 74 -116 0 -10 -215 -391 -230 -406 -6 -6 -234
117 -279 151 -7 5 190 347 213 371 20 21 84 50 111 52 6 0 26 -5 45 -10z m542
-1 c21 -5 49 -20 63 -32 14 -12 72 -103 128 -202 60 -105 112 -184 124 -190
21 -11 20 -13 -39 -103 l-61 -92 -72 0 c-40 0 -87 -3 -104 -6 -29 -6 -31 -5
-31 25 0 22 -46 113 -160 311 -88 154 -160 284 -160 290 0 13 263 13 312 -1z
m-234 -445 l71 -125 -47 -27 c-105 -61 -126 -109 -73 -163 34 -34 17 -33 306
-14 121 8 229 14 240 15 11 0 -20 -24 -70 -53 -99 -58 -130 -98 -120 -151 4
-23 79 -162 222 -408 2 -5 -64 -8 -146 -8 l-151 0 0 70 c0 80 -12 113 -47 129
-71 33 -90 12 -219 -253 l-113 -231 -1 93 c0 102 -16 153 -54 175 -14 8 -98
14 -253 17 l-232 5 69 120 c38 66 71 125 73 130 3 6 11 6 24 -1 118 -70 152
-75 193 -32 43 47 49 37 -258 506 -12 19 3 13 74 -29 97 -58 141 -66 186 -37
15 10 69 94 133 207 59 105 111 191 115 191 4 0 40 -57 78 -126z m-725 -312
c33 -6 43 -16 91 -91 l54 -85 -23 -18 c-13 -10 -97 -147 -186 -304 -89 -156
-163 -283 -164 -282 -16 16 -147 258 -156 287 -16 54 -5 84 105 276 54 93 100
182 103 197 5 27 7 28 72 27 36 0 83 -3 104 -7z m1574 -219 c55 -98 103 -191
107 -206 9 -39 -11 -107 -42 -141 -37 -40 -81 -56 -151 -56 l-60 0 -117 205
c-85 150 -114 209 -106 217 11 11 252 156 262 157 3 1 51 -79 107 -176z m-380
-553 l332 -5 -72 -126 c-87 -152 -91 -157 -142 -180 -35 -16 -69 -19 -251 -19
-148 0 -213 -3 -222 -12 -15 -15 -12 -19 -65 87 l-45 90 47 93 c40 82 48 92
66 85 11 -4 169 -10 352 -13z m-767 -165 l0 -165 -203 0 c-190 0 -205 1 -247
23 -94 47 -116 137 -60 247 l30 60 240 0 240 0 0 -165z"/>
</g>
</svg>
