<?xml version="1.0" standalone="no"?>
<!DOCTYPE svg PUBLIC "-//W3C//DTD SVG 20010904//EN"
 "http://www.w3.org/TR/2001/REC-SVG-20010904/DTD/svg10.dtd">
<svg version="1.0" xmlns="http://www.w3.org/2000/svg"
 width="600.000000pt" height="600.000000pt" viewBox="0 0 600.000000 600.000000"
 preserveAspectRatio="xMidYMid meet">

<g transform="translate(0.000000,600.000000) scale(0.100000,-0.100000)"
fill="#000000" stroke="none">
<path d="M2785 5814 c-165 -7 -414 -25 -544 -39 -129 -15 -135 -14 -200 6 -46
15 -103 23 -191 26 -136 6 -228 -10 -340 -58 -45 -19 -55 -29 -74 -73 l-23
-51 -118 -39 c-142 -46 -309 -128 -387 -191 -32 -25 -75 -70 -95 -101 -31 -46
-38 -67 -41 -118 -2 -40 63 -569 192 -1566 107 -828 232 -1788 276 -2135 45
-346 88 -653 95 -680 110 -392 948 -699 1830 -672 655 21 1222 200 1491 472
115 116 128 151 169 456 115 856 525 4066 525 4111 0 144 -136 271 -406 382
-101 41 -283 97 -413 126 -32 8 -73 27 -98 46 -46 35 -150 88 -194 99 -18 4
-57 -4 -119 -25 l-92 -31 -146 15 c-81 9 -210 20 -287 26 -149 11 -676 20
-810 14z m-848 -159 c127 -24 231 -81 338 -187 96 -95 99 -108 26 -108 -118 0
-291 -76 -438 -192 -9 -8 -11 2 -6 39 13 117 -40 275 -131 386 -48 60 -48 63
9 70 66 9 127 6 202 -8z m1541 0 c2 -1 -11 -17 -29 -34 l-31 -32 -87 37 c-47
20 -87 38 -89 39 -1 1 50 0 115 -3 65 -2 119 -6 121 -7z m-709 -10 c-83 -30
-100 -45 -130 -111 -16 -35 -43 -86 -60 -114 l-31 -50 -57 78 c-32 42 -84 101
-115 131 -31 29 -56 55 -54 56 6 6 275 22 378 23 98 1 103 0 69 -13z m1390
-67 c0 -35 -4 -71 -8 -81 -4 -10 -41 -32 -90 -51 -45 -19 -119 -56 -164 -84
l-82 -50 -59 10 c-49 9 -64 16 -89 47 -17 20 -54 57 -81 83 l-50 47 20 22 c36
41 92 59 188 59 97 0 268 22 337 44 78 25 79 24 78 -46z m276 -58 c36 -39 38
-42 15 -36 -14 4 -52 12 -85 17 l-60 11 3 54 4 54 41 -29 c23 -16 60 -48 82
-71z m-2813 -32 c73 -96 105 -231 78 -329 -9 -34 -14 -37 -54 -41 -93 -11
-192 -81 -262 -185 -21 -32 -41 -61 -44 -66 -3 -4 -27 0 -52 9 -53 18 -65 40
-75 140 -8 90 7 122 107 229 81 86 182 224 211 287 l12 27 27 -19 c15 -11 38
-34 52 -52z m1563 32 c187 -48 374 -207 466 -396 44 -91 46 -101 22 -121 -39
-30 -157 -84 -215 -98 -74 -17 -192 -18 -262 -2 -48 12 -50 14 -86 85 -31 60
-38 87 -43 155 -11 133 -57 244 -139 332 -21 23 -38 45 -38 48 0 23 202 21
295 -3z m1675 -102 c187 -74 326 -172 344 -242 11 -44 -27 -110 -91 -158 -44
-34 -56 -39 -64 -27 -5 8 -9 17 -9 22 0 4 -9 27 -20 50 -18 39 -31 49 -113 90
-141 70 -170 94 -185 154 -7 28 -26 78 -43 113 -16 34 -29 63 -29 65 0 6 134
-37 210 -67z m-2054 -30 c44 -46 69 -83 84 -124 l10 -26 -52 30 c-29 16 -74
37 -100 47 l-48 18 27 48 c14 27 29 49 33 49 3 0 24 -19 46 -42z m-1536 26 c0
-4 -34 -43 -76 -86 -99 -104 -128 -165 -129 -270 0 -43 -2 -78 -4 -78 -2 0
-28 18 -56 39 -62 47 -100 114 -89 157 14 54 102 128 225 188 113 56 129 62
129 50z m3128 -74 c23 -10 75 -50 115 -87 95 -90 142 -126 238 -184 l80 -48
-37 -40 c-53 -60 -162 -110 -249 -117 -39 -3 -88 -2 -110 3 -38 9 -40 11 -47
56 -17 119 -117 236 -263 308 l-86 43 28 15 c62 33 190 71 238 71 28 0 69 -9
93 -20z m-1810 -135 c69 -14 170 -49 185 -64 14 -14 -22 -141 -61 -215 -72
-137 -226 -266 -318 -266 -37 0 -44 4 -70 41 -88 127 -263 219 -417 219 l-58
0 33 46 c84 118 254 223 398 247 61 10 244 6 308 -8z m1468 -105 c108 -53 171
-121 188 -206 6 -26 1 -38 -31 -77 -21 -25 -58 -62 -83 -81 -47 -36 -62 -39
-344 -71 -64 -7 -63 -12 -15 60 85 126 149 291 149 383 0 34 0 35 37 29 21 -4
65 -20 99 -37z m-1102 -134 c53 -90 106 -313 79 -329 -6 -4 -87 -3 -181 0
l-171 6 62 66 c65 69 136 191 157 269 6 23 15 40 20 37 4 -3 20 -25 34 -49z
m-1252 8 c4 -3 -7 -35 -24 -70 -23 -50 -29 -72 -24 -99 4 -19 4 -35 1 -35 -10
0 -170 41 -173 45 -1 1 15 25 37 52 40 52 90 88 139 103 35 11 38 11 44 4z
m-587 -185 c620 -281 1929 -380 3005 -228 405 57 793 167 983 278 37 22 67 38
67 36 0 -6 -359 -2790 -441 -3414 -58 -444 -85 -627 -99 -658 -42 -95 -196
-220 -373 -303 -656 -308 -1757 -306 -2403 4 -133 64 -211 115 -281 186 -92
92 -96 105 -152 545 -28 215 -145 1120 -261 2013 -115 893 -210 1625 -210
1628 0 2 22 -10 49 -26 26 -17 79 -44 116 -61z m2505 -21 c-18 -24 -44 -59
-59 -80 -32 -45 -47 -48 -226 -48 -160 0 -155 -3 -155 81 l0 35 78 -9 c95 -12
212 2 309 36 37 14 72 25 76 26 5 1 -6 -18 -23 -41z m-1614 -13 c51 -15 120
-53 111 -61 -5 -5 -264 33 -278 41 -5 4 -9 13 -9 21 0 19 110 19 176 -1z"/>
<path d="M2652 3750 c-33 -17 -74 -46 -90 -64 -16 -19 -82 -126 -146 -238
-157 -275 -156 -285 4 -378 101 -59 118 -56 -210 -35 -225 15 -236 14 -259 -3
-30 -22 -43 -65 -31 -98 5 -13 30 -37 56 -52 95 -56 95 -37 -3 -211 -84 -150
-87 -156 -91 -231 -3 -48 0 -92 8 -116 18 -53 306 -559 343 -600 16 -19 59
-48 95 -66 l67 -33 255 0 c231 0 259 2 284 18 41 27 56 74 57 174 l0 88 115
-230 c64 -126 123 -236 132 -242 27 -22 80 -16 107 12 22 21 25 33 25 98 l0
74 179 5 c177 5 181 5 243 36 35 17 75 44 90 59 31 33 324 540 344 597 17 47
18 150 3 197 -20 59 -240 438 -266 459 -52 41 -101 27 -253 -69 -29 -19 -42
-41 120 209 70 107 132 205 138 217 18 33 15 59 -11 88 -32 38 -78 37 -143 -3
-28 -18 -56 -32 -61 -32 -6 0 -45 61 -88 136 -94 165 -119 194 -197 234 l-61
30 -347 0 -347 0 -61 -30z m178 -120 c20 -5 50 -24 66 -42 34 -36 74 -99 74
-116 0 -10 -215 -391 -229 -405 -8 -8 -280 142 -281 155 0 9 190 340 209 362
18 21 87 55 111 56 8 0 31 -5 50 -10z m557 -5 c21 -9 46 -23 56 -33 10 -9 64
-97 119 -195 62 -109 110 -183 124 -190 l23 -12 -57 -88 c-33 -51 -65 -89 -77
-92 -11 -2 -59 -6 -107 -8 l-88 -3 0 28 c0 24 -103 212 -327 601 -2 4 64 7
147 7 113 0 160 -4 187 -15z m-248 -440 c79 -135 79 -123 -13 -177 -76 -45
-86 -105 -25 -150 26 -19 31 -19 277 -4 139 9 257 16 264 16 7 0 -27 -23 -75
-52 -100 -57 -131 -94 -123 -146 4 -26 74 -156 223 -414 2 -5 -64 -8 -146 -8
l-151 0 0 79 c0 71 -2 81 -26 105 -31 30 -69 34 -103 10 -15 -11 -67 -106
-137 -248 l-114 -231 0 93 c0 103 -15 153 -52 174 -16 9 -88 14 -255 18 l-231
5 71 127 c40 70 76 128 81 128 5 0 31 -14 58 -30 72 -44 98 -47 136 -15 54 45
48 64 -99 289 -73 111 -139 211 -147 224 -12 19 3 13 74 -29 96 -57 141 -66
185 -38 13 9 73 103 133 208 60 105 113 190 118 189 4 -2 39 -57 77 -123z
m-711 -313 c15 -5 43 -38 77 -91 l53 -85 -24 -18 c-13 -11 -96 -147 -185 -304
-89 -157 -163 -283 -164 -282 -18 18 -147 259 -155 289 -15 56 -6 83 104 274
54 93 100 182 103 197 5 28 6 28 87 27 44 -1 91 -4 104 -7z m1559 -219 c55
-98 103 -191 107 -206 9 -39 -11 -107 -42 -141 -37 -40 -81 -56 -151 -56 l-60
0 -115 203 c-64 112 -116 208 -116 213 1 8 255 162 270 163 3 1 51 -79 107
-176z m-380 -553 l332 -5 -74 -130 c-41 -71 -86 -140 -100 -152 -41 -36 -89
-43 -301 -43 -140 0 -204 -4 -212 -12 -15 -15 -12 -19 -64 86 l-45 90 46 97
c42 89 48 96 66 85 13 -7 131 -13 352 -16z m-767 -166 l0 -165 -212 3 c-238 3
-259 9 -306 79 -32 47 -27 133 12 202 l28 47 239 0 239 0 0 -166z"/>
</g>
</svg>
