<?xml version="1.0" standalone="no"?>
<!DOCTYPE svg PUBLIC "-//W3C//DTD SVG 20010904//EN"
 "http://www.w3.org/TR/2001/REC-SVG-20010904/DTD/svg10.dtd">
<svg version="1.0" xmlns="http://www.w3.org/2000/svg"
 width="250.000000pt" height="400.000000pt" viewBox="0 0 250.000000 400.000000"
 preserveAspectRatio="xMidYMid meet">

<g transform="translate(0.000000,400.000000) scale(0.100000,-0.100000)"
fill="#000000" stroke="none">
<path d="M1115 3850 c-139 -16 -293 -90 -432 -208 -101 -85 -222 -271 -257
-392 -9 -31 -21 -112 -26 -180 -11 -145 -12 -1689 -1 -2050 l7 -245 36 -83
c54 -124 94 -186 182 -279 126 -133 263 -219 416 -260 83 -22 338 -25 420 -4
133 33 303 132 406 237 106 106 205 277 233 399 9 36 14 385 18 1206 l6 1156
-23 69 c-51 155 -156 325 -259 415 -97 87 -231 164 -332 193 -106 30 -269 41
-394 26z m253 -236 c203 -42 358 -158 448 -335 73 -146 69 -72 69 -1264 0
-827 -3 -1087 -13 -1145 -39 -228 -225 -423 -459 -484 -79 -21 -237 -21 -317
0 -210 54 -398 245 -453 460 -17 64 -18 149 -18 1144 0 849 3 1088 14 1135 43
198 203 385 390 456 130 49 220 58 339 33z"/>
</g>
</svg>
