<?xml version="1.0" standalone="no"?>
<!DOCTYPE svg PUBLIC "-//W3C//DTD SVG 20010904//EN"
 "http://www.w3.org/TR/2001/REC-SVG-20010904/DTD/svg10.dtd">
<svg version="1.0" xmlns="http://www.w3.org/2000/svg"
 width="500.000000pt" height="500.000000pt" viewBox="0 0 500.000000 500.000000"
 preserveAspectRatio="xMidYMid meet">

<g transform="translate(0.000000,500.000000) scale(0.100000,-0.100000)"
fill="#000000" stroke="none">
<path d="M1230 4383 c-23 -8 -759 -744 -776 -775 -12 -23 -14 -220 -14 -1346
0 -851 4 -1338 10 -1373 21 -111 89 -200 190 -248 l55 -26 1300 0 1300 0 55
27 c67 33 132 95 160 154 29 58 43 157 38 270 -4 108 -21 138 -79 136 -57 -1
-63 -17 -69 -176 -5 -134 -7 -145 -32 -183 -16 -24 -44 -49 -70 -62 l-44 -21
-1265 0 -1265 0 -46 29 c-30 19 -52 44 -67 73 l-21 44 0 1296 0 1296 243 4
c227 3 245 4 291 26 80 37 132 85 168 160 l33 66 3 243 4 243 961 0 c959 0
961 0 1005 -21 26 -13 54 -38 70 -62 26 -39 27 -47 30 -190 l3 -149 -73 7
c-319 33 -623 -42 -863 -213 -105 -75 -125 -97 -125 -137 0 -36 36 -75 70 -75
9 0 52 27 96 60 285 218 651 284 984 178 167 -53 308 -139 427 -260 126 -127
199 -239 254 -389 219 -600 -123 -1248 -744 -1410 -104 -27 -315 -37 -425 -19
-348 55 -650 283 -802 603 -68 143 -91 241 -97 412 -8 219 28 382 122 552 19
35 35 76 35 92 0 56 -76 86 -119 47 -26 -23 -94 -161 -125 -253 -48 -141 -61
-226 -60 -403 0 -145 3 -178 26 -270 119 -474 472 -815 948 -917 113 -24 372
-24 478 0 213 49 330 106 558 272 11 8 70 -46 252 -228 253 -253 262 -259 313
-219 15 13 22 30 22 51 0 29 -25 58 -238 271 l-238 238 40 49 c170 203 264
473 264 756 0 207 -35 361 -121 542 -119 249 -373 487 -625 587 l-83 32 -5
176 c-5 205 -16 244 -84 320 -55 61 -110 94 -181 109 -54 11 -2021 15 -2052 4z
m-52 -484 c-3 -131 -4 -137 -31 -172 -52 -69 -83 -77 -279 -77 l-173 0 240
240 240 240 3 -47 c2 -27 2 -109 0 -184z"/>
<path d="M2955 3485 c-373 -82 -644 -397 -672 -781 -5 -74 -4 -83 16 -103 27
-27 81 -28 106 -1 12 14 20 45 25 104 10 105 32 182 76 267 118 225 331 365
584 386 86 6 120 28 120 75 0 51 -30 68 -117 67 -43 0 -105 -7 -138 -14z"/>
<path d="M2881 2894 c-12 -15 -21 -36 -21 -47 0 -12 41 -61 102 -124 l102
-103 -97 -98 c-107 -107 -123 -140 -89 -182 14 -17 29 -24 56 -24 33 0 46 10
136 99 l100 99 103 -102 c63 -61 112 -102 124 -102 35 0 73 38 73 73 0 28 -15
47 -95 127 -52 52 -95 99 -95 104 0 5 43 53 95 107 79 80 95 101 95 128 0 18
-8 39 -20 51 -12 12 -33 20 -51 20 -27 0 -48 -16 -128 -95 -54 -52 -102 -95
-107 -95 -5 0 -52 43 -104 95 -80 80 -99 95 -127 95 -22 0 -38 -8 -52 -26z"/>
<path d="M891 1534 c-12 -15 -21 -34 -21 -44 0 -10 9 -29 21 -44 l20 -26 289
0 289 0 20 26 c12 15 21 34 21 44 0 10 -9 29 -21 44 l-20 26 -289 0 -289 0
-20 -26z"/>
<path d="M895 1170 c-10 -11 -18 -34 -18 -50 0 -16 8 -39 18 -50 18 -19 30
-20 460 -20 415 0 443 1 458 18 23 25 22 85 -1 105 -17 15 -63 17 -459 17
-428 0 -440 -1 -458 -20z"/>
</g>
</svg>
