<?xml version="1.0" standalone="no"?>
<!DOCTYPE svg PUBLIC "-//W3C//DTD SVG 20010904//EN"
 "http://www.w3.org/TR/2001/REC-SVG-20010904/DTD/svg10.dtd">
<svg version="1.0" xmlns="http://www.w3.org/2000/svg"
 width="360.000000pt" height="650.000000pt" viewBox="0 0 360.000000 650.000000"
 preserveAspectRatio="xMidYMid meet">

<g transform="translate(0.000000,650.000000) scale(0.100000,-0.100000)"
fill="#000000" stroke="none">
<path d="M1533 6340 c-665 -116 -1197 -642 -1319 -1305 -18 -95 -19 -187 -19
-1790 0 -1594 1 -1696 18 -1790 40 -215 139 -452 264 -628 91 -129 308 -340
437 -426 190 -126 379 -204 601 -248 129 -25 442 -25 580 1 456 85 863 370
1105 776 58 98 137 291 177 435 l27 100 3 1778 3 1778 -30 107 c-74 256 -179
459 -337 654 -225 277 -590 491 -943 553 -152 26 -430 29 -567 5z m565 -245
c550 -122 963 -559 1068 -1130 18 -95 18 -185 16 -1765 -3 -1451 -5 -1672 -18
-1720 -88 -317 -198 -523 -378 -705 -175 -177 -388 -299 -653 -372 -95 -27
-106 -28 -333 -27 l-235 1 -125 37 c-534 159 -899 565 -996 1106 -39 217 -39
3251 0 3450 36 186 86 327 166 465 195 340 523 575 928 665 75 17 115 19 287
16 133 -3 224 -10 273 -21z"/>
<path d="M1615 2582 c-168 -63 -287 -167 -360 -317 -46 -93 -65 -172 -65 -270
0 -167 60 -306 184 -430 164 -163 365 -220 580 -165 115 29 189 73 282 165 65
64 90 98 125 169 l44 90 0 170 0 171 -37 75 c-71 144 -172 245 -318 317 l-75
38 -155 3 c-131 2 -163 -1 -205 -16z m355 -246 c75 -37 143 -106 177 -180 25
-54 28 -72 28 -161 0 -88 -3 -107 -27 -157 -37 -80 -105 -149 -181 -184 -55
-26 -73 -29 -162 -29 -91 0 -106 3 -165 31 -82 40 -134 92 -174 174 -29 60
-31 72 -30 170 0 125 17 172 91 251 82 87 166 120 298 116 75 -3 99 -8 145
-31z"/>
</g>
</svg>
