<?xml version="1.0" standalone="no"?>
<!DOCTYPE svg PUBLIC "-//W3C//DTD SVG 20010904//EN"
 "http://www.w3.org/TR/2001/REC-SVG-20010904/DTD/svg10.dtd">
<svg version="1.0" xmlns="http://www.w3.org/2000/svg"
 width="128.000000pt" height="128.000000pt" viewBox="0 0 512.000000 512.000000"
 preserveAspectRatio="xMidYMid meet">

<g transform="translate(0.000000,512.000000) scale(0.100000,-0.100000)"
fill="#000000" stroke="none">
<path d="M2310 4465 c-699 -96 -1279 -550 -1539 -1207 -35 -88 -75 -225 -92
-315 l-12 -63 -269 0 -269 0 -24 -25 -25 -24 0 -271 0 -271 25 -24 24 -25 269
0 269 0 12 -62 c69 -365 271 -732 547 -998 748 -719 1913 -722 2662 -6 271
259 478 630 547 979 l18 87 269 0 269 0 24 25 25 24 0 271 0 271 -25 24 -24
25 -269 0 -269 0 -18 88 c-49 248 -183 538 -348 756 -309 406 -771 674 -1280
741 -140 18 -365 18 -497 0z m575 -175 c368 -73 672 -237 931 -502 252 -257
412 -565 474 -910 30 -168 9 -158 331 -158 l259 0 0 -160 0 -160 -259 0 c-321
0 -301 9 -331 -155 -62 -349 -221 -656 -474 -913 -256 -262 -549 -422 -915
-499 -113 -24 -148 -27 -336 -27 -180 -1 -226 3 -325 22 -376 76 -680 240
-941 508 -252 259 -414 576 -473 924 -25 147 -9 140 -327 140 l-259 0 0 160 0
160 259 0 c318 0 302 -7 327 140 118 699 667 1271 1361 1420 159 34 218 39
408 35 134 -2 208 -8 290 -25z"/>
<path d="M2375 3989 c-617 -83 -1108 -548 -1232 -1166 -26 -132 -24 -415 5
-545 65 -297 190 -527 396 -734 207 -206 437 -331 734 -396 140 -31 424 -31
564 0 297 65 526 189 733 397 210 209 343 459 402 752 24 121 24 393 0 518
-113 585 -549 1031 -1130 1156 -108 23 -364 33 -472 18z m374 -165 c552 -81
994 -523 1075 -1075 30 -200 13 -394 -49 -584 -65 -200 -160 -352 -314 -506
-154 -154 -306 -249 -506 -314 -752 -247 -1545 248 -1661 1035 -29 200 -7 421
61 610 132 363 420 649 785 778 194 68 399 87 609 56z"/>
<path d="M1625 3175 c-14 -13 -25 -34 -25 -47 0 -13 18 -92 39 -175 l39 -153
-95 0 c-86 0 -96 -2 -118 -25 -25 -24 -25 -26 -25 -215 0 -189 0 -191 25 -215
23 -24 28 -25 178 -25 l155 0 63 -257 c69 -280 80 -303 139 -303 39 0 27 -12
319 323 128 147 237 267 241 267 4 0 113 -120 241 -267 292 -335 280 -323 319
-323 59 0 70 23 139 303 l63 257 155 0 c150 0 155 1 178 25 25 24 25 26 25
215 0 189 0 191 -25 215 -22 23 -32 25 -118 25 l-95 0 39 153 c21 83 39 162
39 175 0 13 -11 34 -25 47 -24 25 -26 25 -215 25 -185 0 -192 -1 -213 -22 -17
-18 -36 -81 -81 -263 -32 -132 -62 -243 -66 -248 -3 -4 -73 72 -154 170 -81
98 -161 184 -177 192 -25 13 -33 13 -58 0 -16 -8 -96 -94 -177 -192 -81 -98
-151 -174 -154 -170 -4 5 -34 116 -66 248 -45 182 -64 245 -81 263 -21 21 -28
22 -213 22 -189 0 -191 0 -215 -25z m385 -427 c40 -161 79 -303 86 -315 16
-26 53 -38 88 -29 15 4 87 82 197 216 96 115 176 210 179 210 3 0 84 -95 180
-210 105 -126 184 -213 198 -216 33 -9 70 4 86 29 7 12 46 154 86 315 l72 292
78 0 78 0 -39 -152 c-21 -84 -39 -163 -39 -176 0 -13 11 -34 25 -47 23 -23 31
-25 130 -25 l105 0 0 -80 0 -80 -144 0 c-122 0 -147 -3 -165 -18 -17 -13 -34
-64 -76 -230 -29 -117 -55 -215 -57 -217 -1 -1 -109 118 -238 266 -137 157
-244 272 -257 275 -13 4 -33 4 -45 0 -14 -3 -121 -118 -258 -275 -129 -148
-237 -267 -238 -266 -2 2 -28 100 -57 217 -42 166 -59 217 -76 230 -18 15 -43
18 -165 18 l-144 0 0 80 0 80 105 0 c99 0 107 2 130 25 14 13 25 34 25 47 0
13 -18 92 -39 176 l-39 152 78 0 78 0 72 -292z"/>
</g>
</svg>
