<?xml version="1.0" standalone="no"?>
<!DOCTYPE svg PUBLIC "-//W3C//DTD SVG 20010904//EN"
 "http://www.w3.org/TR/2001/REC-SVG-20010904/DTD/svg10.dtd">
<svg version="1.0" xmlns="http://www.w3.org/2000/svg"
 width="128.000000pt" height="128.000000pt" viewBox="0 0 512.000000 512.000000"
 preserveAspectRatio="xMidYMid meet">

<g transform="translate(0.000000,512.000000) scale(0.100000,-0.100000)"
fill="#000000" stroke="none">
<path d="M2470 4899 c-30 -5 -84 -23 -120 -41 -137 -67 -66 52 -1235 -2064
-582 -1055 -1070 -1945 -1082 -1976 -59 -144 -30 -318 73 -443 46 -57 138
-119 212 -142 54 -17 158 -18 2242 -18 2084 0 2188 1 2242 18 119 38 223 130
274 242 56 123 55 254 -4 379 -63 132 -2126 3854 -2160 3895 -43 53 -138 116
-203 135 -66 20 -173 27 -239 15z m195 -228 c22 -10 54 -32 71 -49 23 -22
1996 -3573 2135 -3840 66 -130 28 -266 -92 -326 l-53 -26 -2166 0 -2166 0 -53
26 c-120 60 -158 196 -92 326 139 267 2112 3818 2135 3840 46 47 101 68 176
68 42 0 79 -7 105 -19z"/>
<path d="M2280 3383 c-26 -24 -67 -130 -300 -784 -168 -470 -270 -771 -270
-794 0 -27 8 -44 29 -66 l29 -29 261 0 c163 0 261 -4 261 -10 0 -5 -83 -218
-185 -473 -102 -255 -185 -472 -185 -484 0 -11 10 -35 23 -54 30 -45 80 -58
128 -35 23 12 231 247 654 741 341 399 635 743 653 766 54 69 39 144 -34 175
-25 11 -91 14 -274 14 -132 0 -240 2 -240 5 0 2 83 213 185 468 102 255 185
473 185 486 0 32 -29 77 -57 90 -16 7 -159 11 -428 11 l-405 0 -30 -27z m647
-200 c-2 -10 -86 -222 -186 -471 -99 -248 -181 -461 -181 -473 0 -30 27 -77
53 -91 15 -9 89 -15 238 -18 l216 -5 -334 -390 c-184 -214 -341 -397 -349
-405 -17 -17 -20 -25 101 278 85 211 88 237 39 283 -26 24 -26 24 -291 27
-244 3 -265 4 -260 20 2 9 100 285 217 612 117 327 217 607 222 623 l10 27
255 0 c238 0 255 -1 250 -17z"/>
</g>
</svg>
