<?xml version="1.0" standalone="no"?>
<!DOCTYPE svg PUBLIC "-//W3C//DTD SVG 20010904//EN"
 "http://www.w3.org/TR/2001/REC-SVG-20010904/DTD/svg10.dtd">
<svg version="1.0" xmlns="http://www.w3.org/2000/svg"
 width="128.000000pt" height="128.000000pt" viewBox="0 0 512.000000 512.000000"
 preserveAspectRatio="xMidYMid meet">

<g transform="translate(0.000000,512.000000) scale(0.100000,-0.100000)"
fill="#000000" stroke="none">
<path d="M4708 4906 c-19 -8 -1766 -1941 -2016 -2230 -28 -32 -33 -44 -28 -70
3 -17 14 -38 24 -46 10 -8 198 -66 418 -129 219 -62 403 -117 407 -121 5 -4
-190 -462 -432 -1017 -243 -555 -441 -1017 -441 -1026 0 -9 11 -28 23 -43 32
-37 80 -36 118 3 15 15 475 534 1023 1152 880 993 996 1127 996 1155 0 21 -8
40 -22 53 -16 14 -146 53 -418 127 -217 59 -402 110 -411 114 -14 6 52 162
422 997 241 545 439 1000 439 1013 0 55 -52 90 -102 68z m-603 -1303 c-195
-441 -355 -812 -355 -826 0 -55 14 -61 433 -174 218 -59 396 -111 395 -115 -2
-6 -1396 -1581 -1551 -1751 l-37 -42 13 35 c8 19 170 392 361 828 190 437 346
801 346 809 0 8 -12 27 -27 41 -23 22 -93 46 -414 137 -340 97 -385 112 -375
126 21 30 1560 1739 1563 1736 1 -2 -157 -364 -352 -804z"/>
<path d="M1871 4399 c-297 -32 -591 -139 -842 -308 -404 -272 -672 -674 -781
-1171 -20 -93 -22 -133 -23 -350 0 -218 3 -257 23 -355 85 -406 296 -775 590
-1030 499 -435 1179 -574 1801 -369 113 37 151 65 151 110 0 29 -41 74 -68 74
-10 0 -73 -18 -138 -39 -127 -42 -331 -81 -420 -81 l-54 0 0 103 c0 118 -13
150 -58 145 -40 -5 -52 -39 -52 -152 l0 -99 -88 6 c-133 10 -394 69 -425 96
-4 4 4 35 18 70 24 59 25 65 10 87 -20 30 -59 31 -79 2 -8 -12 -23 -43 -33
-70 -9 -26 -21 -48 -26 -48 -18 0 -169 84 -252 139 -46 31 -116 83 -155 115
l-71 59 81 82 c44 46 80 90 80 99 0 21 -35 56 -56 56 -9 0 -53 -36 -99 -80
l-82 -81 -59 73 c-33 40 -76 96 -96 123 -41 58 -138 226 -138 241 0 5 29 22
65 38 73 32 91 61 60 96 -23 26 -33 25 -105 -5 -33 -14 -62 -25 -64 -25 -10 0
-66 196 -86 296 -10 54 -22 138 -26 187 l-7 87 115 0 c121 0 138 6 138 46 0
45 -23 54 -142 54 l-111 0 8 83 c13 156 75 424 100 433 6 3 33 -4 59 -16 61
-26 91 -25 110 1 24 35 6 61 -65 91 -49 21 -63 31 -61 45 10 57 172 311 266
418 l45 50 79 -78 c67 -67 83 -78 108 -75 21 2 31 11 38 31 9 26 5 33 -67 105
-42 43 -77 83 -77 89 0 26 212 182 351 257 l86 46 28 -65 c32 -77 55 -94 91
-70 30 19 30 40 0 114 l-24 59 57 21 c137 49 345 91 459 91 l52 0 0 -108 c0
-93 3 -111 18 -125 23 -21 46 -22 66 -1 13 12 16 39 16 125 l0 109 49 0 c100
0 354 -50 453 -88 l27 -11 -26 -65 c-22 -55 -24 -70 -15 -91 9 -18 19 -25 41
-25 34 0 41 8 71 83 12 31 25 57 29 57 4 0 47 -21 96 -46 123 -63 250 -152
362 -253 125 -113 132 -118 170 -102 30 12 53 46 53 78 0 22 -130 154 -225
228 -374 293 -855 433 -1324 384z"/>
<path d="M1161 3386 c-16 -17 -22 -33 -19 -57 3 -30 42 -70 373 -372 511 -468
510 -467 545 -467 65 0 94 83 48 133 -30 32 -805 736 -842 765 -37 29 -77 28
-105 -2z"/>
</g>
</svg>
