<?xml version="1.0" standalone="no"?>
<!DOCTYPE svg PUBLIC "-//W3C//DTD SVG 20010904//EN"
 "http://www.w3.org/TR/2001/REC-SVG-20010904/DTD/svg10.dtd">
<svg version="1.0" xmlns="http://www.w3.org/2000/svg"
 width="620.000000pt" height="620.000000pt" viewBox="0 0 620.000000 620.000000"
 preserveAspectRatio="xMidYMid meet">

<g transform="translate(0.000000,620.000000) scale(0.100000,-0.100000)"
fill="#000000" stroke="none">
<path d="M3065 5688 c-43 -25 -44 -34 -45 -270 l0 -226 31 -26 c17 -15 43 -26
59 -26 16 0 42 11 59 26 l31 26 0 228 0 228 -31 26 c-32 28 -71 33 -104 14z"/>
<path d="M1879 5315 c-35 -19 -54 -66 -41 -102 5 -15 62 -103 126 -194 120
-173 149 -199 198 -184 55 17 86 72 68 119 -5 14 -62 100 -126 192 -132 188
-157 206 -225 169z"/>
<path d="M4254 5320 c-22 -9 -247 -320 -265 -366 -25 -68 45 -137 117 -114 27
9 54 41 150 178 64 91 120 177 125 191 28 71 -53 141 -127 111z"/>
<path d="M2895 4935 c-507 -81 -926 -438 -1090 -928 -50 -149 -68 -267 -68
-437 2 -357 118 -652 374 -941 161 -183 244 -375 256 -589 l5 -95 -53 -35
c-78 -51 -111 -110 -117 -208 -4 -71 -2 -82 26 -134 l31 -58 -30 -56 c-94
-179 38 -394 242 -394 l48 0 12 -42 c46 -175 210 -330 387 -367 68 -14 316
-14 384 0 177 37 341 192 387 367 12 41 13 42 55 42 102 0 192 51 244 138 24
41 27 57 27 132 0 75 -3 91 -27 132 l-28 46 30 57 c23 44 30 70 30 115 0 106
-40 181 -125 236 l-53 33 5 63 c18 241 98 427 268 623 253 291 366 580 367
935 0 170 -18 289 -67 437 -157 472 -536 808 -1035 918 -106 23 -369 28 -485
10z m416 -190 c426 -74 782 -382 924 -797 45 -129 60 -224 59 -378 0 -312
-100 -564 -319 -810 -78 -87 -149 -189 -194 -278 -66 -131 -121 -343 -121
-468 l0 -54 -548 0 -549 0 -6 92 c-17 251 -126 499 -310 705 -310 347 -402
769 -261 1193 135 406 496 719 917 795 99 18 307 18 408 0z m493 -2997 c43
-39 36 -107 -14 -133 -43 -22 -1316 -23 -1359 0 -55 28 -60 104 -9 139 20 14
94 16 690 16 l667 0 25 -22z m-25 -339 c17 -6 36 -19 41 -29 17 -32 11 -82
-12 -107 l-21 -23 -676 0 -675 0 -23 22 c-41 39 -30 112 21 134 41 17 1294 21
1345 3z m-281 -376 c-38 -88 -104 -152 -189 -184 -71 -27 -327 -27 -398 0 -85
32 -160 106 -191 185 l-10 26 400 0 400 0 -12 -27z"/>
<path d="M2965 3903 c-145 -23 -353 -106 -393 -158 -30 -37 -29 -85 3 -119 34
-37 76 -34 177 14 123 59 220 81 358 81 138 0 235 -22 358 -81 48 -23 99 -40
118 -40 73 0 110 85 63 144 -33 43 -151 98 -294 138 -69 19 -318 33 -390 21z"/>
<path d="M3013 3580 c-65 -12 -144 -42 -210 -80 -58 -33 -78 -73 -61 -120 27
-73 68 -82 167 -34 145 70 257 70 402 0 86 -41 116 -41 149 1 27 34 27 96 0
123 -26 26 -122 74 -187 93 -67 20 -194 28 -260 17z"/>
<path d="M3063 3225 c-105 -45 -69 -208 47 -208 117 0 152 164 45 209 -42 17
-51 17 -92 -1z"/>
<path d="M1106 4309 c-34 -40 -34 -81 2 -118 20 -21 73 -45 212 -95 102 -36
198 -66 213 -66 36 0 87 49 87 84 0 40 -20 74 -54 90 -77 36 -370 136 -401
136 -25 0 -40 -8 -59 -31z"/>
<path d="M4840 4275 c-96 -35 -184 -69 -196 -76 -25 -13 -44 -49 -44 -85 0
-35 51 -84 87 -84 15 0 111 30 213 66 202 73 240 97 240 155 0 43 -48 89 -92
89 -18 -1 -112 -30 -208 -65z"/>
<path d="M1258 3147 c-106 -30 -195 -60 -207 -71 -58 -53 -17 -156 63 -156 29
0 388 95 418 111 49 26 53 114 7 152 -32 26 -76 20 -281 -36z"/>
<path d="M4687 3189 c-11 -6 -25 -26 -33 -45 -12 -29 -12 -39 0 -68 8 -19 23
-39 34 -45 32 -17 387 -111 420 -111 44 0 82 40 82 87 0 76 -9 81 -276 153
-158 42 -197 47 -227 29z"/>
<path d="M1995 2340 c-26 -10 -67 -55 -199 -213 -90 -109 -106 -134 -106 -164
0 -68 77 -114 136 -80 12 7 83 85 158 175 97 115 136 169 136 188 0 37 -25 78
-55 92 -30 14 -42 14 -70 2z"/>
<path d="M4155 2336 c-33 -14 -55 -52 -55 -91 0 -27 254 -340 293 -362 38 -21
76 -15 109 17 26 27 30 36 25 70 -4 32 -28 66 -130 187 -69 81 -133 156 -143
165 -28 24 -65 30 -99 14z"/>
</g>
</svg>
