<?xml version="1.0" standalone="no"?>
<!DOCTYPE svg PUBLIC "-//W3C//DTD SVG 20010904//EN"
 "http://www.w3.org/TR/2001/REC-SVG-20010904/DTD/svg10.dtd">
<svg version="1.0" xmlns="http://www.w3.org/2000/svg"
 width="140.000000pt" height="140.000000pt" viewBox="0 0 140.000000 140.000000"
 preserveAspectRatio="xMidYMid meet">

<g transform="translate(0.000000,140.000000) scale(0.100000,-0.100000)"
fill="#000000" stroke="none">
<path d="M570 1160 c-100 -10 -171 -25 -209 -45 -50 -25 -53 -35 -41 -132 6
-48 13 -98 16 -111 5 -27 65 -57 130 -68 36 -5 44 -11 62 -50 13 -26 38 -54
63 -71 36 -24 53 -28 109 -28 56 0 73 4 109 28 26 17 50 45 63 72 13 26 29 45
38 45 32 0 121 31 139 49 24 24 48 215 30 237 -48 58 -299 94 -509 74z m395
-53 c86 -24 96 -33 90 -73 -3 -18 -8 -50 -11 -70 -4 -28 -9 -34 -22 -29 -82
32 -145 40 -322 40 -177 0 -240 -8 -322 -40 -13 -5 -18 1 -23 37 -14 101 -15
100 39 120 26 10 71 23 100 28 77 14 411 5 471 -13z m-28 -182 c115 -26 121
-59 14 -85 -46 -11 -50 -10 -97 19 -107 69 -211 67 -313 -3 -35 -25 -41 -26
-88 -16 -28 6 -59 18 -69 26 -18 14 -18 14 1 29 67 52 381 69 552 30z m-122
-80 c25 -14 45 -32 45 -39 0 -20 -41 -77 -73 -100 -45 -33 -132 -29 -180 7
-34 26 -67 73 -67 96 0 11 60 49 98 62 46 15 129 3 177 -26z"/>
<path d="M771 786 c-6 -7 -25 -19 -41 -26 -39 -16 -41 -45 -2 -35 37 9 80 51
66 65 -8 8 -14 7 -23 -4z"/>
<path d="M560 586 c-8 -10 -5 -17 12 -28 77 -49 179 -49 256 0 17 11 20 18 12
28 -9 10 -18 8 -48 -9 -50 -30 -134 -30 -184 0 -30 17 -39 19 -48 9z"/>
<path d="M496 465 c-6 -17 16 -34 79 -61 62 -27 195 -25 262 5 29 13 57 29 64
37 23 28 -3 30 -57 3 -31 -15 -80 -30 -108 -33 -58 -7 -151 13 -202 44 -27 17
-33 18 -38 5z"/>
<path d="M424 339 c-17 -28 99 -83 214 -101 98 -15 260 20 323 71 35 28 15 46
-24 22 -132 -81 -334 -81 -470 -1 -26 16 -37 18 -43 9z"/>
</g>
</svg>
