<?xml version="1.0" standalone="no"?>
<!DOCTYPE svg PUBLIC "-//W3C//DTD SVG 20010904//EN"
 "http://www.w3.org/TR/2001/REC-SVG-20010904/DTD/svg10.dtd">
<svg version="1.0" xmlns="http://www.w3.org/2000/svg"
 width="620.000000pt" height="620.000000pt" viewBox="0 0 620.000000 620.000000"
 preserveAspectRatio="xMidYMid meet">

<g transform="translate(0.000000,620.000000) scale(0.100000,-0.100000)"
fill="#000000" stroke="none">
<path d="M2950 5870 c-227 -29 -474 -143 -640 -297 -66 -60 -75 -91 -38 -117
33 -24 41 -21 105 35 130 115 292 201 458 246 89 24 118 27 265 27 147 0 176
-3 265 -27 166 -45 328 -131 458 -246 32 -28 65 -51 73 -51 20 0 54 37 54 59
0 10 -25 42 -56 70 -157 144 -347 241 -559 286 -90 19 -289 26 -385 15z"/>
<path d="M2924 5485 c-122 -27 -255 -94 -347 -176 -63 -55 -73 -74 -52 -105
21 -33 64 -32 96 2 78 84 256 166 398 183 189 24 399 -41 543 -169 65 -57 118
-52 118 11 0 20 -13 39 -51 73 -98 88 -228 153 -360 181 -86 18 -262 18 -345
0z"/>
<path d="M2993 5115 c-102 -28 -213 -105 -213 -146 0 -22 34 -59 53 -59 7 0
36 18 66 40 29 22 76 47 104 55 105 31 209 12 298 -55 61 -46 71 -48 100 -19
30 30 20 58 -38 105 -97 79 -253 112 -370 79z"/>
<path d="M3062 4738 c-7 -7 -12 -24 -12 -38 0 -14 5 -31 12 -38 7 -7 24 -12
38 -12 14 0 31 5 38 12 7 7 12 24 12 38 0 14 -5 31 -12 38 -7 7 -24 12 -38 12
-14 0 -31 -5 -38 -12z"/>
<path d="M1503 4370 c-119 -24 -233 -117 -292 -240 l-36 -75 -3 -1575 c-2
-1073 1 -1591 8 -1625 32 -151 168 -289 321 -324 59 -14 3116 -15 3188 -1 159
30 301 172 331 331 14 72 13 3129 -1 3188 -35 151 -169 285 -320 320 -54 13
-3133 13 -3196 1z m3237 -129 c61 -32 116 -86 148 -146 l27 -50 3 -1577 2
-1577 -21 -58 c-29 -79 -103 -153 -182 -182 l-58 -21 -1577 2 -1577 3 -50 27
c-60 32 -114 87 -146 148 l-24 45 0 1595 0 1595 24 45 c42 81 117 145 201 171
14 4 736 7 1605 6 l1580 -2 45 -24z"/>
<path d="M1562 3988 c-17 -17 -17 -3059 0 -3076 17 -17 3059 -17 3076 0 17 17
17 3059 0 3076 -17 17 -3059 17 -3076 0z m2970 -106 c19 -19 19 -2845 0 -2864
-19 -19 -2845 -19 -2864 0 -11 11 -14 279 -16 1405 -1 766 0 1407 3 1425 4 21
14 36 28 42 13 5 626 8 1429 7 1139 -2 1409 -4 1420 -15z"/>
<path d="M2782 3428 c-9 -9 -12 -129 -12 -478 l0 -466 -95 -474 c-52 -261 -95
-487 -95 -502 0 -17 7 -31 19 -38 13 -6 189 -10 505 -10 525 0 516 -1 516 54
0 12 -43 235 -95 496 l-95 474 0 466 c0 349 -3 469 -12 478 -17 17 -619 17
-636 0z m538 -117 c6 -13 10 -155 10 -393 0 -307 -3 -378 -14 -394 -13 -18
-28 -19 -216 -19 -188 0 -203 1 -216 19 -11 16 -14 87 -14 394 0 238 4 380 10
393 10 18 23 19 220 19 197 0 210 -1 220 -19z m10 -927 c6 -6 45 -184 87 -396
66 -327 75 -388 64 -402 -12 -14 -56 -16 -388 -16 -344 0 -374 1 -380 17 -5
14 76 451 140 751 6 30 16 46 30 52 31 13 433 8 447 -6z"/>
</g>
</svg>
