<?xml version="1.0" standalone="no"?>
<!DOCTYPE svg PUBLIC "-//W3C//DTD SVG 20010904//EN"
 "http://www.w3.org/TR/2001/REC-SVG-20010904/DTD/svg10.dtd">
<svg version="1.0" xmlns="http://www.w3.org/2000/svg"
 width="620.000000pt" height="620.000000pt" viewBox="0 0 620.000000 620.000000"
 preserveAspectRatio="xMidYMid meet">

<g transform="translate(0.000000,620.000000) scale(0.100000,-0.100000)"
fill="#000000" stroke="none">
<path d="M1700 5824 c-242 -52 -448 -220 -541 -444 -61 -145 -60 -117 -57
-1335 l3 -1110 22 -41 c28 -53 91 -107 142 -122 23 -7 112 -12 224 -12 l186 0
3 -395 3 -394 23 -23 c21 -21 32 -23 167 -26 l145 -3 0 -686 c0 -491 3 -697
12 -724 25 -84 113 -155 208 -166 77 -9 136 12 196 71 87 85 84 55 84 833 l0
673 580 0 579 0 3 -697 c3 -694 3 -698 25 -739 27 -50 75 -97 122 -121 53 -26
163 -24 217 5 53 27 107 90 122 141 9 27 12 233 12 724 l0 686 145 3 c135 3
146 5 167 26 l23 23 3 394 3 395 192 0 c171 0 197 3 237 21 55 25 95 62 123
114 l22 40 0 1135 c0 1222 2 1174 -52 1304 -74 178 -230 334 -408 409 -140 59
-92 57 -1542 56 -1099 0 -1339 -3 -1393 -15z m570 -699 c0 -604 2 -632 64
-775 110 -259 339 -442 615 -494 381 -72 763 134 917 494 62 143 64 171 64
775 l0 545 253 0 c285 0 323 -6 441 -68 93 -48 190 -145 238 -237 72 -138 68
-70 68 -1291 -1 -1163 1 -1117 -47 -1142 -16 -9 -463 -12 -1783 -12 -1879 0
-1806 -2 -1824 45 -3 9 -6 508 -6 1108 0 1213 -3 1157 68 1291 71 136 221 255
368 290 42 10 130 15 312 15 l252 1 0 -545z m1497 -7 c-4 -615 -2 -599 -75
-748 -49 -101 -176 -230 -279 -283 -197 -102 -429 -102 -626 0 -102 52 -230
182 -279 283 -73 148 -72 133 -76 748 l-3 552 671 0 671 0 -4 -552z m-1087
-2693 l0 -335 -415 0 -415 0 0 335 0 335 415 0 415 0 0 -335z m670 0 l0 -335
-250 0 -250 0 0 335 0 335 250 0 250 0 0 -335z m1000 0 l0 -335 -415 0 -415 0
0 335 0 335 415 0 415 0 0 -335z m-2000 -1185 l0 -681 -25 -24 c-24 -25 -65
-32 -100 -19 -45 17 -45 24 -45 734 l0 670 85 0 85 0 0 -680z m1670 9 c0 -689
0 -696 -39 -726 -27 -21 -79 -15 -106 12 l-25 24 0 681 0 680 85 0 85 0 0
-671z"/>
<path d="M3045 5315 c-25 -24 -25 -25 -25 -225 0 -200 0 -201 25 -225 15 -16
36 -25 55 -25 19 0 40 9 55 25 25 24 25 25 25 225 0 200 0 201 -25 225 -15 16
-36 25 -55 25 -19 0 -40 -9 -55 -25z"/>
<path d="M2728 5089 c-73 -77 -128 -218 -128 -329 1 -225 157 -428 374 -486
65 -18 187 -18 252 0 125 33 253 134 313 246 36 68 61 164 61 240 0 111 -55
252 -128 329 -48 50 -98 56 -137 16 -29 -28 -32 -60 -7 -96 70 -104 83 -127
92 -159 31 -110 -2 -243 -79 -320 -74 -74 -128 -95 -241 -95 -115 0 -165 20
-238 92 -69 69 -95 142 -90 248 5 82 35 163 73 195 22 18 45 64 45 90 0 34
-44 70 -86 70 -30 0 -44 -7 -76 -41z"/>
</g>
</svg>
