<?xml version="1.0" standalone="no"?>
<!DOCTYPE svg PUBLIC "-//W3C//DTD SVG 20010904//EN"
 "http://www.w3.org/TR/2001/REC-SVG-20010904/DTD/svg10.dtd">
<svg version="1.0" xmlns="http://www.w3.org/2000/svg"
 width="620.000000pt" height="620.000000pt" viewBox="0 0 620.000000 620.000000"
 preserveAspectRatio="xMidYMid meet">

<g transform="translate(0.000000,620.000000) scale(0.100000,-0.100000)"
fill="#000000" stroke="none">
<path d="M2700 5443 c-38 -13 -120 -90 -562 -531 -364 -363 -525 -530 -545
-566 -38 -69 -40 -177 -4 -246 16 -32 356 -379 1134 -1158 1227 -1228 1160
-1167 1287 -1167 112 1 135 17 398 278 l234 232 55 -60 c60 -66 124 -187 148
-280 19 -77 19 -243 0 -320 -47 -184 -182 -354 -345 -433 -113 -56 -183 -72
-305 -72 -121 0 -191 16 -305 71 l-85 41 -1150 1148 c-1034 1032 -1156 1150
-1213 1178 -308 151 -663 -51 -689 -393 -7 -87 9 -165 49 -247 27 -55 90 -122
491 -524 l459 -462 -25 -63 c-32 -82 -41 -150 -27 -218 19 -100 52 -154 166
-271 92 -95 112 -110 139 -110 19 0 39 8 50 20 19 21 20 20 125 -85 88 -88
110 -105 136 -105 38 0 64 27 64 66 0 24 -19 49 -105 134 l-105 105 97 97 98
98 110 -109 c124 -123 150 -137 189 -97 45 44 36 61 -88 185 l-115 114 20 25
c35 45 26 68 -68 165 -105 107 -180 159 -267 182 -85 23 -183 17 -249 -16
l-48 -23 -448 449 c-505 507 -501 502 -509 640 -6 110 21 179 97 256 77 76
146 103 256 97 62 -4 93 -11 135 -32 45 -23 254 -226 1195 -1166 1219 -1216
1181 -1181 1342 -1240 406 -147 849 44 1020 440 121 284 64 626 -144 850 l-56
61 230 232 c144 144 239 249 253 276 30 61 36 134 16 207 -16 58 -21 63 -333
372 -281 277 -320 312 -348 312 -39 0 -65 -27 -65 -67 0 -27 36 -67 304 -330
202 -198 307 -308 312 -327 3 -15 4 -46 1 -68 -5 -39 -35 -71 -509 -545 -277
-278 -516 -511 -532 -520 -20 -10 -44 -14 -74 -10 -44 5 -56 16 -1164 1124
-1065 1065 -1120 1121 -1125 1161 -3 22 -2 53 1 69 5 19 162 183 489 512 265
266 500 496 521 512 43 32 112 39 153 16 12 -7 151 -144 308 -305 260 -264
290 -292 319 -292 40 0 66 26 66 67 0 26 -41 71 -307 341 -276 278 -313 312
-357 326 -61 20 -137 19 -196 -1z m-542 -3528 c53 -24 172 -128 172 -149 0 -6
-72 -82 -159 -170 -107 -106 -164 -157 -174 -153 -28 11 -143 156 -155 195
-26 85 -9 168 46 233 45 52 81 68 157 69 43 0 75 -7 113 -25z"/>
<path d="M3848 5220 c-33 -26 -37 -71 -10 -98 16 -16 41 -20 143 -25 151 -7
251 -31 376 -92 307 -149 534 -483 550 -808 5 -86 10 -113 25 -132 27 -35 70
-33 98 3 21 25 22 34 17 127 -16 272 -132 515 -351 730 -206 203 -418 295
-714 311 -100 6 -109 5 -134 -16z"/>
<path d="M2702 4820 c-232 -42 -423 -210 -495 -435 -29 -93 -31 -263 -3 -345
43 -127 107 -221 203 -302 111 -92 239 -138 386 -138 174 0 303 55 432 185 92
92 136 166 165 281 71 276 -72 574 -335 698 -113 54 -245 75 -353 56z m203
-145 c142 -37 257 -134 323 -272 32 -69 37 -88 40 -173 3 -78 0 -107 -18 -159
-76 -226 -303 -369 -526 -332 -233 39 -404 238 -404 471 0 306 295 540 585
465z"/>
<path d="M2760 4552 c-8 -2 -50 -39 -92 -80 -64 -63 -78 -82 -78 -108 0 -38
27 -64 66 -64 44 0 184 142 184 186 0 42 -43 78 -80 66z"/>
<path d="M2957 4182 c-62 -63 -77 -83 -77 -108 0 -38 27 -64 66 -64 40 0 187
144 187 184 0 37 -30 66 -67 66 -26 0 -45 -14 -109 -78z"/>
<path d="M2589 4103 c-57 -55 -69 -72 -69 -98 0 -38 29 -67 66 -67 34 0 164
128 164 161 0 28 -43 71 -71 71 -12 0 -49 -27 -90 -67z"/>
<path d="M3851 4792 c-20 -4 -42 -18 -54 -34 -18 -24 -18 -30 -7 -57 14 -35
23 -38 130 -44 127 -8 242 -66 348 -175 114 -116 163 -223 167 -361 2 -95 13
-111 72 -111 24 0 37 7 49 25 26 39 15 200 -18 283 -106 260 -350 455 -598
476 -30 2 -70 1 -89 -2z"/>
<path d="M3904 4251 c-63 -27 -82 -108 -38 -160 72 -85 209 -11 174 95 -18 54
-86 86 -136 65z"/>
<path d="M3930 3624 c-226 -44 -409 -204 -488 -427 -36 -101 -38 -271 -4 -367
65 -188 204 -324 401 -394 76 -26 99 -30 201 -30 185 -1 304 46 426 168 123
124 182 280 171 460 -15 263 -179 478 -434 567 -57 20 -218 33 -273 23z m229
-153 c86 -27 139 -61 207 -133 103 -111 140 -216 132 -374 -4 -76 -11 -103
-37 -160 -82 -174 -222 -264 -415 -264 -145 0 -265 51 -366 156 -111 115 -154
262 -120 413 36 163 170 311 328 362 77 24 193 24 271 0z"/>
<path d="M3884 3268 c-71 -69 -84 -86 -84 -114 0 -37 29 -64 68 -64 29 0 170
132 178 167 12 48 -21 93 -68 93 -6 0 -48 -37 -94 -82z"/>
<path d="M4174 2978 c-71 -69 -84 -86 -84 -114 0 -37 29 -64 68 -64 29 0 170
132 178 167 12 48 -21 93 -68 93 -6 0 -48 -37 -94 -82z"/>
<path d="M3792 2886 c-40 -41 -72 -80 -72 -89 0 -29 40 -67 72 -67 24 0 44 13
94 63 76 74 87 105 50 141 -41 42 -65 34 -144 -48z"/>
</g>
</svg>
