<?xml version="1.0" standalone="no"?>
<!DOCTYPE svg PUBLIC "-//W3C//DTD SVG 20010904//EN"
 "http://www.w3.org/TR/2001/REC-SVG-20010904/DTD/svg10.dtd">
<svg version="1.0" xmlns="http://www.w3.org/2000/svg"
 width="620.000000pt" height="620.000000pt" viewBox="0 0 620.000000 620.000000"
 preserveAspectRatio="xMidYMid meet">

<g transform="translate(0.000000,620.000000) scale(0.100000,-0.100000)"
fill="#000000" stroke="none">
<path d="M2945 5859 c-546 -48 -979 -239 -1389 -611 -50 -45 -59 -59 -59 -87
0 -21 7 -39 18 -47 35 -26 65 -16 129 43 294 273 658 461 1036 537 673 135
1356 -55 1858 -517 89 -82 123 -95 155 -59 34 37 22 65 -60 143 -270 258 -669
469 -1033 548 -214 46 -479 66 -655 50z"/>
<path d="M2950 5344 c-326 -42 -624 -177 -849 -386 -66 -61 -79 -99 -43 -131
33 -30 60 -20 145 54 186 161 386 262 622 315 112 25 372 30 496 10 254 -42
498 -159 687 -330 78 -71 107 -81 142 -46 29 29 25 55 -17 101 -38 42 -165
144 -239 191 -131 84 -329 164 -492 198 -95 20 -367 35 -452 24z"/>
<path d="M1919 4476 c-106 -28 -219 -129 -261 -234 l-23 -57 0 -1780 0 -1780
23 -58 c29 -71 112 -163 181 -200 104 -57 91 -57 1262 -57 736 0 1094 3 1135
11 173 32 303 160 334 330 7 36 9 646 8 1790 l-3 1734 -23 58 c-47 115 -139
202 -251 237 -61 19 -93 20 -1200 19 -867 0 -1147 -3 -1182 -13z m2369 -135
c30 -14 69 -43 92 -68 76 -87 71 64 68 -1888 l-3 -1750 -22 -41 c-26 -48 -88
-107 -140 -131 -36 -17 -108 -18 -1178 -18 l-1140 0 -46 21 c-55 26 -108 77
-135 130 -19 38 -19 78 -19 1809 0 1695 1 1772 18 1807 38 76 110 132 190 148
23 4 542 7 1152 7 l1110 -2 53 -24z"/>
<path d="M2200 3964 c-103 -45 -157 -160 -125 -270 45 -154 233 -211 355 -107
160 137 67 394 -142 393 -29 -1 -69 -8 -88 -16z m138 -124 c89 -55 49 -180
-58 -180 -74 0 -116 95 -69 154 38 48 77 56 127 26z"/>
<path d="M3830 3964 c-104 -45 -157 -159 -126 -269 46 -155 234 -213 356 -108
160 137 67 394 -142 393 -29 -1 -69 -8 -88 -16z m130 -119 c28 -14 60 -60 60
-85 0 -27 -33 -78 -56 -89 -44 -20 -83 -13 -115 18 -36 36 -39 86 -8 125 36
45 73 55 119 31z"/>
<path d="M3060 3840 c-19 -19 -20 -33 -20 -204 l0 -185 26 -20 c34 -27 50 -26
79 4 25 24 25 27 25 195 0 166 -6 203 -34 222 -20 14 -56 8 -76 -12z"/>
<path d="M2805 3649 c-21 -23 -49 -67 -64 -98 -23 -49 -26 -68 -26 -161 0 -99
2 -110 32 -171 148 -299 573 -294 716 8 29 62 32 77 32 164 0 90 -2 99 -38
171 -38 77 -84 128 -116 128 -56 0 -83 -77 -40 -116 40 -35 69 -113 69 -185 0
-246 -300 -361 -464 -177 -46 50 -76 122 -76 178 0 48 29 126 65 173 40 52 44
78 15 107 -32 32 -63 25 -105 -21z"/>
<path d="M2200 3305 c-145 -65 -180 -252 -69 -364 94 -94 238 -88 326 13 88
99 65 258 -48 333 -52 34 -153 43 -209 18z m157 -136 c31 -30 38 -71 18 -112
-30 -63 -107 -77 -156 -28 -36 36 -39 86 -8 125 40 51 101 56 146 15z"/>
<path d="M3830 3305 c-105 -47 -157 -160 -126 -270 50 -171 265 -217 383 -81
88 99 65 258 -48 333 -52 34 -153 43 -209 18z m160 -140 c38 -38 35 -98 -8
-136 -90 -80 -215 31 -141 125 41 52 103 56 149 11z"/>
<path d="M2085 2615 c-25 -24 -25 -27 -25 -200 0 -173 0 -176 25 -200 l24 -25
368 0 c317 0 372 2 391 16 21 15 22 20 22 209 0 189 -1 194 -22 209 -19 14
-74 16 -391 16 l-368 0 -24 -25z m685 -200 l0 -95 -290 0 -290 0 0 95 0 95
290 0 290 0 0 -95z"/>
<path d="M3335 2615 c-25 -24 -25 -27 -25 -198 0 -161 2 -176 21 -201 l20 -26
373 0 c320 0 375 2 394 16 21 15 22 20 22 209 0 189 -1 194 -22 209 -19 14
-74 16 -391 16 l-368 0 -24 -25z m685 -200 l0 -95 -290 0 -290 0 0 95 0 95
290 0 290 0 0 -95z"/>
<path d="M2085 1936 c-25 -25 -25 -27 -25 -199 0 -161 2 -176 21 -201 l20 -26
378 0 c353 0 379 1 394 18 15 16 17 45 17 203 0 144 -3 189 -14 205 -14 18
-31 19 -390 22 l-376 3 -25 -25z m685 -201 l0 -95 -290 0 -290 0 0 95 0 95
290 0 290 0 0 -95z"/>
<path d="M3335 1935 c-25 -24 -25 -27 -25 -195 0 -166 6 -203 34 -222 6 -4
180 -8 387 -8 352 0 377 1 392 18 15 16 17 45 17 203 0 101 -4 189 -8 195 -21
31 -54 34 -412 34 l-361 0 -24 -25z m685 -200 l0 -95 -290 0 -290 0 0 95 0 95
290 0 290 0 0 -95z"/>
<path d="M2084 1256 c-18 -13 -19 -28 -19 -206 0 -178 1 -193 19 -206 16 -11
87 -14 396 -14 352 0 378 1 393 18 15 16 17 45 17 204 0 166 -2 187 -18 201
-17 15 -59 17 -393 17 -308 0 -379 -3 -395 -14z m681 -206 l0 -95 -287 -3
-288 -2 0 100 0 100 288 -2 287 -3 0 -95z"/>
<path d="M3329 1253 c-11 -12 -14 -60 -14 -205 0 -176 1 -191 19 -204 16 -11
87 -14 396 -14 352 0 378 1 393 18 15 16 17 45 17 204 0 166 -2 187 -18 201
-17 15 -59 17 -399 17 -342 0 -382 -2 -394 -17z m686 -203 l0 -95 -287 -3
-288 -2 0 100 0 100 288 -2 287 -3 0 -95z"/>
</g>
</svg>
