<?xml version="1.0" standalone="no"?>
<!DOCTYPE svg PUBLIC "-//W3C//DTD SVG 20010904//EN"
 "http://www.w3.org/TR/2001/REC-SVG-20010904/DTD/svg10.dtd">
<svg version="1.0" xmlns="http://www.w3.org/2000/svg"
 width="250.000000pt" height="250.000000pt" viewBox="0 0 250.000000 250.000000"
 preserveAspectRatio="xMidYMid meet">

<g transform="translate(0.000000,250.000000) scale(0.100000,-0.100000)"
fill="#000000" stroke="none">
<path d="M1014 2019 l-29 -30 -3 -681 c-2 -513 1 -688 10 -708 6 -15 26 -37
43 -48 28 -19 49 -22 215 -28 206 -7 229 -3 260 48 19 32 20 51 20 708 0 659
-1 676 -20 708 -34 55 -66 62 -278 62 l-188 0 -30 -31z m411 -63 c20 -13 20
-25 15 -682 l-5 -669 -170 3 c-93 1 -176 4 -182 7 -10 3 -13 147 -13 673 0
368 3 672 7 675 3 4 79 7 167 7 121 0 166 -3 181 -14z"/>
<path d="M772 1718 c-17 -17 -17 -819 0 -836 15 -15 51 -15 66 0 17 17 17 819
0 836 -7 7 -21 12 -33 12 -12 0 -26 -5 -33 -12z"/>
<path d="M1678 1699 c-17 -9 -18 -40 -18 -419 0 -358 2 -411 16 -424 20 -20
38 -20 58 0 14 13 16 65 16 417 0 221 -4 407 -8 413 -11 17 -45 24 -64 13z"/>
<path d="M1862 1688 c-9 -9 -12 -74 -12 -230 0 -217 0 -219 23 -227 14 -6 29
-5 42 4 19 12 20 25 23 215 2 169 0 207 -13 226 -17 26 -44 31 -63 12z"/>
<path d="M584 1337 c-2 -7 -3 -111 -2 -232 l3 -220 35 0 35 0 3 219 c2 153 -1
223 -9 232 -14 18 -58 18 -65 1z"/>
</g>
</svg>
