<?xml version="1.0" standalone="no"?>
<!DOCTYPE svg PUBLIC "-//W3C//DTD SVG 20010904//EN"
 "http://www.w3.org/TR/2001/REC-SVG-20010904/DTD/svg10.dtd">
<svg version="1.0" xmlns="http://www.w3.org/2000/svg"
 width="620.000000pt" height="620.000000pt" viewBox="0 0 620.000000 620.000000"
 preserveAspectRatio="xMidYMid meet">

<g transform="translate(0.000000,620.000000) scale(0.100000,-0.100000)"
fill="#000000" stroke="none">
<path d="M2055 5434 c-140 -19 -192 -30 -270 -56 -431 -144 -754 -524 -820
-965 -22 -146 -22 -2480 0 -2626 39 -258 157 -483 355 -677 292 -286 674 -400
1083 -324 340 64 664 307 831 623 56 108 111 271 126 376 8 57 10 456 8 1365
l-3 1285 -27 98 c-54 196 -172 400 -312 542 -172 173 -401 297 -630 340 -81
16 -285 27 -341 19z m370 -208 c397 -103 688 -427 760 -843 14 -79 15 -244 12
-1324 l-3 -1234 -22 -82 c-50 -190 -131 -342 -251 -475 -118 -130 -311 -245
-497 -295 -88 -24 -117 -27 -259 -27 -134 0 -174 3 -244 22 -192 51 -335 129
-469 256 -194 184 -298 407 -322 686 -13 151 -13 2229 0 2380 22 259 111 464
276 640 148 156 307 249 512 300 112 27 124 28 272 25 106 -2 156 -8 235 -29z"/>
<path d="M2011 2600 c-122 -45 -210 -126 -268 -247 -84 -174 -44 -381 99 -519
103 -100 212 -140 356 -131 160 10 309 112 383 262 33 68 34 73 34 195 0 120
-1 128 -32 193 -45 95 -127 178 -222 225 -71 35 -80 37 -185 40 -90 2 -121 -2
-165 -18z m271 -178 c144 -63 206 -240 135 -384 -54 -109 -152 -165 -276 -156
-148 11 -248 111 -259 259 -6 83 15 150 64 208 81 94 221 124 336 73z"/>
<path d="M4440 3545 c-187 -52 -339 -178 -425 -351 -67 -135 -66 -121 -63
-1068 3 -848 3 -851 25 -909 43 -111 87 -181 163 -258 80 -81 163 -133 270
-170 94 -32 286 -32 380 0 209 72 364 228 436 441 18 52 19 101 19 935 l0 880
-23 65 c-70 197 -216 345 -410 418 -86 32 -284 41 -372 17z m252 -169 c182
-39 307 -156 365 -341 17 -56 18 -112 18 -870 0 -901 2 -878 -68 -994 -154
-257 -507 -308 -725 -106 -70 65 -115 139 -139 225 -17 60 -18 128 -18 870 0
654 3 815 14 860 46 181 184 316 365 355 80 17 107 18 188 1z"/>
</g>
</svg>
