<?xml version="1.0" standalone="no"?>
<!DOCTYPE svg PUBLIC "-//W3C//DTD SVG 20010904//EN"
 "http://www.w3.org/TR/2001/REC-SVG-20010904/DTD/svg10.dtd">
<svg version="1.0" xmlns="http://www.w3.org/2000/svg"
 width="500.000000pt" height="450.000000pt" viewBox="0 0 500.000000 450.000000"
 preserveAspectRatio="xMidYMid meet">

<g transform="translate(0.000000,450.000000) scale(0.100000,-0.100000)"
fill="#000000" stroke="none">
<path d="M955 3400 c-214 -43 -397 -214 -471 -440 -17 -50 -18 -110 -22 -660
-2 -411 0 -632 8 -690 32 -243 204 -442 445 -517 57 -17 133 -18 1590 -18
l1530 0 75 27 c114 40 168 74 251 158 57 57 86 97 113 153 67 138 67 144 64
866 -3 628 -4 648 -24 701 -66 174 -166 289 -316 366 -133 67 -36 64 -1698 63
-828 -1 -1523 -5 -1545 -9z m3106 -116 c169 -49 304 -186 351 -353 17 -60 18
-115 18 -691 0 -679 0 -675 -57 -788 -37 -74 -132 -169 -209 -210 -125 -65
-39 -62 -1664 -62 -1287 0 -1483 2 -1535 15 -190 49 -327 183 -375 369 -19 75
-20 110 -20 675 0 479 3 609 15 664 38 180 183 333 362 382 39 11 338 13 1554
14 1347 1 1511 -1 1560 -15z"/>
<path d="M1659 2692 c-69 -36 -114 -95 -129 -167 -8 -37 -11 -145 -8 -318 3
-245 5 -265 25 -302 25 -47 74 -95 123 -121 33 -18 76 -19 785 -22 471 -2 774
1 815 7 79 13 133 48 175 115 l30 49 3 286 c2 206 0 299 -9 331 -17 59 -97
141 -155 158 -31 9 -238 12 -822 12 l-780 0 -53 -28z m781 -101 c6 -13 10
-142 10 -350 0 -318 -1 -332 -20 -351 -19 -19 -33 -20 -352 -20 -366 0 -377 2
-422 63 -20 27 -21 41 -21 310 0 260 1 284 19 310 38 56 41 56 423 57 338 0
353 -1 363 -19z m867 -1 c61 -37 63 -50 63 -351 0 -394 30 -369 -446 -369
-205 0 -332 4 -345 10 -18 10 -19 25 -19 358 0 257 3 351 12 360 9 9 102 12
358 12 325 0 347 -1 377 -20z"/>
<path d="M1830 2240 l0 -160 55 0 55 0 0 160 0 160 -55 0 -55 0 0 -160z"/>
<path d="M2140 2240 l0 -160 55 0 55 0 0 160 0 160 -55 0 -55 0 0 -160z"/>
<path d="M3854 2481 c-91 -41 -153 -135 -154 -230 0 -83 19 -130 75 -188 88
-91 206 -106 317 -40 146 88 166 290 41 409 -69 66 -194 88 -279 49z m184
-111 c75 -46 90 -158 30 -226 -124 -141 -338 30 -234 188 37 57 141 76 204 38z"/>
<path d="M860 2245 l0 -55 190 0 190 0 0 55 0 55 -190 0 -190 0 0 -55z"/>
</g>
</svg>
