<?xml version="1.0" standalone="no"?>
<!DOCTYPE svg PUBLIC "-//W3C//DTD SVG 20010904//EN"
 "http://www.w3.org/TR/2001/REC-SVG-20010904/DTD/svg10.dtd">
<svg version="1.0" xmlns="http://www.w3.org/2000/svg"
 width="620.000000pt" height="620.000000pt" viewBox="0 0 620.000000 620.000000"
 preserveAspectRatio="xMidYMid meet">

<g transform="translate(0.000000,620.000000) scale(0.100000,-0.100000)"
fill="#000000" stroke="none">
<path d="M2845 5785 c-245 -54 -439 -206 -546 -430 -71 -149 -72 -156 -77
-582 l-3 -383 -255 0 -256 0 -29 -29 c-20 -20 -29 -39 -29 -61 0 -22 9 -41 29
-61 l29 -29 256 0 256 0 0 -210 0 -210 -256 0 -256 0 -29 -29 c-20 -20 -29
-39 -29 -61 0 -22 9 -41 29 -61 l29 -29 256 0 256 0 0 -450 0 -449 -93 -90
c-192 -185 -307 -395 -364 -661 -26 -124 -24 -381 4 -505 103 -445 411 -788
834 -929 693 -232 1433 170 1618 879 92 349 21 742 -187 1034 -29 42 -96 119
-148 171 l-94 95 0 746 0 745 45 22 c66 32 121 87 152 150 23 48 27 70 28 142
0 73 -4 93 -28 142 -31 63 -109 140 -161 159 l-33 12 -6 156 c-7 189 -27 274
-94 404 -38 74 -65 109 -138 182 -93 93 -161 140 -265 182 -126 51 -315 67
-445 38z m347 -194 c84 -27 203 -106 263 -174 55 -63 109 -164 130 -243 9 -33
19 -121 22 -200 l6 -140 -46 -18 c-65 -25 -141 -96 -174 -164 -24 -49 -28 -69
-28 -142 0 -72 4 -93 28 -142 33 -67 90 -121 163 -155 l54 -24 0 -789 0 -788
64 -51 c236 -188 385 -478 403 -781 27 -485 -276 -931 -740 -1086 -573 -191
-1203 139 -1371 720 -123 423 16 866 360 1147 l74 60 0 495 0 494 256 0 256 0
29 29 c20 20 29 39 29 61 0 22 -9 41 -29 61 l-29 29 -256 0 -256 0 0 210 0
210 256 0 256 0 29 29 c20 20 29 39 29 61 0 22 -9 41 -29 61 l-29 29 -256 0
-256 0 0 348 c0 315 2 356 20 426 29 113 73 190 160 277 80 81 171 134 280
164 78 21 244 14 332 -14z m564 -947 c109 -52 110 -210 1 -263 -53 -26 -80
-26 -134 -2 -30 14 -48 31 -64 62 -66 130 66 265 197 203z"/>
<path d="M2880 2640 c0 -374 -1 -400 -17 -400 -28 0 -143 -58 -200 -101 -65
-49 -135 -146 -170 -235 -23 -59 -27 -84 -27 -179 -1 -90 3 -122 22 -178 76
-218 283 -367 512 -367 229 0 437 149 511 367 35 100 33 250 -3 350 -32 91
-104 192 -171 242 -57 43 -172 101 -199 101 -17 0 -18 26 -18 400 l0 400 -120
0 -120 0 0 -400z"/>
<path d="M4430 5337 c-14 -7 -31 -25 -38 -40 -23 -47 -7 -80 66 -143 146 -125
227 -247 277 -421 63 -217 35 -450 -78 -653 -30 -53 -73 -105 -148 -181 -59
-58 -110 -116 -114 -128 -17 -54 46 -119 103 -106 32 7 131 89 197 165 345
391 336 984 -21 1369 -69 75 -169 151 -197 151 -12 0 -33 -6 -47 -13z"/>
<path d="M4077 4989 c-11 -6 -25 -26 -33 -44 -21 -52 -4 -86 66 -129 32 -20
72 -53 90 -73 119 -135 118 -347 -1 -477 -27 -30 -67 -65 -87 -78 -50 -30 -61
-47 -62 -91 0 -27 7 -45 25 -62 37 -38 81 -33 154 16 326 217 319 694 -13 911
-61 39 -104 47 -139 27z"/>
</g>
</svg>
