<?xml version="1.0" standalone="no"?>
<!DOCTYPE svg PUBLIC "-//W3C//DTD SVG 20010904//EN"
 "http://www.w3.org/TR/2001/REC-SVG-20010904/DTD/svg10.dtd">
<svg version="1.0" xmlns="http://www.w3.org/2000/svg"
 width="620.000000pt" height="620.000000pt" viewBox="0 0 620.000000 620.000000"
 preserveAspectRatio="xMidYMid meet">

<g transform="translate(0.000000,620.000000) scale(0.100000,-0.100000)"
fill="#000000" stroke="none">
<path d="M1365 4969 c-72 -11 -185 -63 -241 -113 -56 -48 -112 -134 -143 -220
-24 -69 -25 -79 -26 -306 0 -215 2 -241 22 -305 49 -154 163 -276 306 -324
l52 -18 6 -364 c5 -281 10 -380 23 -434 51 -223 137 -385 285 -539 128 -132
266 -216 446 -273 l90 -28 870 0 870 0 88 28 c48 15 117 40 152 56 246 112
458 354 548 626 45 136 50 179 56 558 l6 368 51 18 c157 53 284 200 320 370
19 90 19 422 0 512 -37 172 -154 308 -322 371 l-59 23 -1670 1 c-918 1 -1697
-2 -1730 -7z m3422 -190 c68 -26 138 -91 173 -164 24 -49 25 -55 25 -290 0
-231 -1 -242 -23 -286 -34 -68 -83 -121 -143 -154 l-54 -30 -1690 -3 c-1886
-3 -1738 -8 -1834 68 -35 28 -59 59 -83 107 l-33 67 -3 208 c-4 232 4 278 58
360 38 57 90 98 155 120 47 16 163 17 1722 18 l1672 0 58 -21z m-189 -1476
c-4 -367 -4 -368 -31 -456 -48 -154 -107 -257 -216 -371 -116 -121 -237 -193
-400 -239 -74 -21 -97 -21 -831 -25 -509 -2 -786 0 -850 8 -183 21 -337 93
-474 221 -137 128 -227 291 -267 484 -16 77 -19 137 -19 418 l0 327 1546 0
1545 0 -3 -367z"/>
<path d="M1864 3440 c-52 -21 -54 -33 -54 -337 0 -188 4 -290 11 -307 25 -53
104 -58 136 -9 16 24 18 59 21 289 4 295 -2 335 -48 359 -33 17 -36 17 -66 5z"/>
<path d="M2154 3440 c-52 -21 -54 -33 -54 -343 l0 -289 29 -29 c47 -46 101
-35 127 26 18 44 20 534 3 584 -6 18 -24 38 -40 46 -32 17 -36 17 -65 5z"/>
<path d="M2444 3440 c-52 -21 -54 -33 -54 -343 l0 -289 29 -29 c36 -36 70 -37
108 -5 l28 24 3 283 c3 307 0 329 -49 354 -32 17 -36 17 -65 5z"/>
<path d="M2730 3437 c-47 -24 -50 -42 -50 -345 l0 -284 29 -29 c36 -36 70 -37
108 -5 l28 24 0 301 c0 287 -1 301 -20 320 -27 27 -65 34 -95 18z"/>
<path d="M3019 3435 c-47 -26 -50 -49 -47 -354 l3 -283 28 -24 c38 -32 72 -31
108 5 l29 29 0 291 c0 287 0 290 -22 315 -29 32 -66 40 -99 21z"/>
<path d="M3309 3435 c-44 -24 -49 -58 -49 -337 0 -200 3 -266 14 -293 26 -61
80 -72 127 -26 l29 29 0 291 c0 287 0 290 -22 315 -29 32 -66 40 -99 21z"/>
<path d="M3605 3439 c-45 -25 -45 -29 -45 -341 l0 -299 25 -24 c26 -27 54 -31
88 -13 46 24 46 28 47 335 0 289 0 292 -22 317 -27 30 -65 40 -93 25z"/>
<path d="M3910 3443 c-8 -3 -25 -15 -37 -26 -23 -20 -23 -22 -23 -319 l0 -299
25 -24 c26 -27 54 -31 88 -13 46 24 46 28 47 335 0 289 0 292 -22 317 -25 26
-54 37 -78 29z"/>
<path d="M4234 3440 c-52 -21 -54 -33 -54 -337 0 -188 4 -290 11 -307 25 -53
104 -58 136 -9 16 24 18 59 21 289 4 295 -2 335 -48 359 -33 17 -36 17 -66 5z"/>
<path d="M753 2498 c-33 -37 -34 -55 -12 -161 59 -294 185 -535 384 -732 55
-55 135 -124 177 -153 161 -110 402 -206 551 -219 61 -5 70 -4 92 17 18 17 25
34 25 61 0 59 -23 77 -125 98 -494 102 -846 465 -944 973 -15 78 -25 107 -41
120 -31 25 -82 23 -107 -4z"/>
<path d="M5341 2502 c-17 -13 -28 -45 -46 -127 -40 -192 -92 -319 -190 -465
-172 -260 -434 -434 -749 -499 -103 -22 -128 -41 -128 -96 0 -80 59 -102 196
-70 392 91 724 352 904 711 76 151 142 373 142 477 0 33 -6 49 -23 65 -28 27
-77 29 -106 4z"/>
<path d="M1125 2488 c-51 -28 -57 -81 -25 -216 77 -322 298 -558 606 -647 159
-46 234 -28 234 57 0 59 -23 76 -129 98 -294 60 -501 272 -557 570 -22 117
-23 119 -54 135 -34 18 -48 18 -75 3z"/>
<path d="M4915 2477 c-21 -18 -29 -38 -41 -106 -55 -317 -298 -563 -590 -597
-95 -12 -136 -86 -81 -150 20 -23 31 -27 72 -26 210 8 463 154 600 347 83 116
142 263 164 403 13 83 0 125 -45 142 -37 15 -50 12 -79 -13z"/>
</g>
</svg>
