<?xml version="1.0" standalone="no"?>
<!DOCTYPE svg PUBLIC "-//W3C//DTD SVG 20010904//EN"
 "http://www.w3.org/TR/2001/REC-SVG-20010904/DTD/svg10.dtd">
<svg version="1.0" xmlns="http://www.w3.org/2000/svg"
 width="512.000000pt" height="512.000000pt" viewBox="0 0 512.000000 512.000000"
 preserveAspectRatio="xMidYMid meet">

<g transform="translate(0.000000,512.000000) scale(0.100000,-0.100000)"
fill="#000000" stroke="none">
<path d="M3700 4277 c-26 -8 -119 -93 -350 -322 -292 -289 -320 -313 -386
-343 -42 -19 -101 -36 -145 -42 -128 -16 -116 -26 -121 99 -2 70 -8 114 -16
124 -9 11 -34 17 -75 19 l-62 3 -3 135 c-3 179 8 170 -207 170 -215 0 -204 9
-207 -170 l-3 -135 -62 -3 c-41 -2 -66 -8 -75 -19 -8 -10 -14 -54 -16 -124
l-4 -109 -188 0 c-162 0 -189 -2 -201 -17 -11 -12 -14 -56 -14 -179 0 -143 2
-165 18 -181 15 -16 41 -18 202 -21 l185 -3 0 -90 0 -89 -188 0 c-170 0 -191
-2 -205 -18 -15 -16 -17 -46 -17 -205 l0 -187 -304 0 -304 0 -7 59 c-8 69 -32
114 -77 141 -31 19 -51 20 -354 20 -317 0 -322 0 -354 -23 -19 -12 -43 -38
-54 -57 -21 -34 -21 -49 -24 -840 -2 -443 0 -833 3 -867 8 -72 33 -117 85
-147 33 -20 50 -21 345 -21 295 0 312 1 345 21 49 28 76 74 85 139 l6 55 1384
0 1384 0 6 -55 c9 -65 36 -111 85 -139 33 -20 54 -21 325 -24 160 -2 305 0
323 3 18 3 51 22 72 41 30 28 41 47 50 88 7 36 10 311 8 882 l-3 829 -22 35
c-12 20 -40 46 -61 58 -39 21 -48 22 -346 22 -284 0 -310 -1 -345 -19 -52 -27
-75 -65 -81 -136 l-5 -60 -307 -3 -308 -2 0 188 c0 170 -2 191 -18 205 -16 15
-46 17 -205 17 l-187 0 0 89 0 88 88 7 c118 10 201 28 299 66 147 56 216 110
503 396 l266 264 509 0 c571 0 557 -1 622 73 36 41 48 86 41 158 -6 57 -43
111 -99 144 -33 19 -54 20 -614 22 -394 1 -591 -2 -615 -10z m1184 -128 c37
-29 37 -89 0 -118 -26 -21 -36 -21 -552 -21 l-526 0 -280 -278 c-155 -153
-302 -293 -329 -311 -68 -46 -160 -87 -252 -113 -78 -21 -97 -22 -667 -26
l-588 -3 0 80 0 80 583 4 c648 4 631 2 772 75 61 31 111 76 370 333 165 163
309 301 320 307 14 8 190 11 571 12 543 0 552 0 578 -21z m-2464 -244 l0 -95
-85 0 -85 0 0 95 0 95 85 0 85 0 0 -95z m150 -280 l0 -65 -235 0 -235 0 0 65
0 65 235 0 235 0 0 -65z m0 -555 l0 -90 -235 0 -235 0 0 90 0 90 235 0 235 0
0 -90z m-690 -355 l0 -145 -100 0 -100 0 0 145 0 145 100 0 100 0 0 -145z
m400 0 l0 -145 -140 0 -140 0 0 145 0 145 140 0 140 0 0 -145z m390 0 l0 -145
-135 0 -135 0 0 145 0 145 135 0 135 0 0 -145z m320 0 l0 -145 -100 0 -100 0
0 145 0 145 100 0 100 0 0 -145z m-2172 -277 l2 -228 -305 0 -305 0 0 223 c0
123 3 227 7 230 4 4 140 6 302 5 l296 -3 3 -227z m3626 226 c14 -5 16 -35 16
-230 l0 -224 -305 0 -305 0 0 224 c0 170 3 226 13 229 18 8 562 8 581 1z
m-724 -854 l0 -640 -1385 0 -1385 0 0 640 0 640 1385 0 1385 0 0 -640z m-2900
0 l0 -280 -305 0 -305 0 0 280 0 280 305 0 305 0 0 -280z m3640 0 l0 -280
-305 0 -305 0 0 280 0 280 305 0 305 0 0 -280z m-3640 -620 c0 -207 -1 -220
-19 -230 -26 -14 -546 -14 -572 0 -18 10 -19 23 -19 230 l0 220 305 0 305 0 0
-220z m3640 2 c0 -156 -3 -221 -12 -230 -16 -16 -550 -17 -579 -2 -18 10 -19
23 -19 230 l0 220 305 0 305 0 0 -218z"/>
<path d="M1056 1368 c-22 -31 -20 -45 9 -73 23 -24 29 -25 157 -25 153 0 181
9 186 56 6 58 -11 64 -183 64 -148 0 -154 -1 -169 -22z"/>
<path d="M1616 1374 c-20 -19 -20 -54 -2 -80 14 -18 33 -19 507 -22 424 -2
495 0 515 12 31 21 39 52 20 81 l-16 25 -505 0 c-444 0 -505 -2 -519 -16z"/>
</g>
</svg>
