<?xml version="1.0" standalone="no"?>
<!DOCTYPE svg PUBLIC "-//W3C//DTD SVG 20010904//EN"
 "http://www.w3.org/TR/2001/REC-SVG-20010904/DTD/svg10.dtd">
<svg version="1.0" xmlns="http://www.w3.org/2000/svg"
 width="655.000000pt" height="655.000000pt" viewBox="0 0 655.000000 655.000000"
 preserveAspectRatio="xMidYMid meet">

<g transform="translate(0.000000,655.000000) scale(0.100000,-0.100000)"
fill="#000000" stroke="none">
<path d="M2305 5749 c-486 -17 -710 -37 -825 -75 -280 -94 -554 -385 -624
-665 -56 -226 -88 -1336 -67 -2324 15 -716 32 -1009 66 -1150 23 -91 106 -250
180 -342 68 -85 161 -170 250 -229 66 -44 207 -101 293 -119 189 -39 710 -56
1707 -56 1057 0 1540 18 1725 62 275 67 496 250 631 524 60 121 83 210 98 375
28 295 39 1636 21 2500 -12 581 -23 684 -90 859 -116 299 -436 561 -736 600
-115 15 -384 30 -749 41 -363 11 -1549 11 -1880 -1z m1905 -109 c614 -13 757
-29 909 -101 184 -87 341 -240 430 -417 99 -197 116 -509 108 -2042 -6 -1259
-15 -1436 -83 -1605 -91 -227 -317 -438 -547 -510 -121 -38 -386 -55 -1197
-76 -709 -18 -1847 9 -2173 52 -263 34 -511 218 -639 473 -52 102 -73 191 -87
356 -56 671 -50 2669 9 3109 22 161 110 348 212 453 76 76 201 169 281 207
127 59 226 73 677 95 315 16 1483 19 2100 6z"/>
<path d="M2612 1454 c-28 -19 -52 -65 -52 -99 0 -34 24 -80 52 -99 28 -20 90
-21 126 -2 27 14 45 40 57 82 9 32 -22 98 -54 117 -36 21 -99 22 -129 1z"/>
<path d="M3174 1451 c-67 -41 -67 -151 -1 -191 98 -60 210 24 178 132 -22 71
-110 100 -177 59z"/>
</g>
</svg>
